<svg width="900" height="397" viewBox="0 0 900 397" class="keymap" xmlns="http://www.w3.org/2000/svg" xmlns:xlink="http://www.w3.org/1999/xlink">
<defs>/* start glyphs */
<svg id="mdi:apple-keyboard-shift">
<svg xmlns="http://www.w3.org/2000/svg" id="mdi-apple-keyboard-shift" viewBox="0 0 24 24"><path d="M15,18V12H17.17L12,6.83L6.83,12H9V18H15M12,4L22,14H17V20H7V14H2L12,4Z" /></svg>
</svg>
<svg id="mdi:arrow-down">
<svg xmlns="http://www.w3.org/2000/svg" id="mdi-arrow-down" viewBox="0 0 24 24"><path d="M11,4H13V16L18.5,10.5L19.92,11.92L12,19.84L4.08,11.92L5.5,10.5L11,16V4Z" /></svg>
</svg>
<svg id="mdi:arrow-left">
<svg xmlns="http://www.w3.org/2000/svg" id="mdi-arrow-left" viewBox="0 0 24 24"><path d="M20,11V13H8L13.5,18.5L12.08,19.92L4.16,12L12.08,4.08L13.5,5.5L8,11H20Z" /></svg>
</svg>
<svg id="mdi:arrow-right">
<svg xmlns="http://www.w3.org/2000/svg" id="mdi-arrow-right" viewBox="0 0 24 24"><path d="M4,11V13H16L10.5,18.5L11.92,19.92L19.84,12L11.92,4.08L10.5,5.5L16,11H4Z" /></svg>
</svg>
<svg id="mdi:arrow-up">
<svg xmlns="http://www.w3.org/2000/svg" id="mdi-arrow-up" viewBox="0 0 24 24"><path d="M13,20H11V8L5.5,13.5L4.08,12.08L12,4.16L19.92,12.08L18.5,13.5L13,8V20Z" /></svg>
</svg>
<svg id="mdi:backspace-outline">
<svg xmlns="http://www.w3.org/2000/svg" id="mdi-backspace-outline" viewBox="0 0 24 24"><path d="M19,15.59L17.59,17L14,13.41L10.41,17L9,15.59L12.59,12L9,8.41L10.41,7L14,10.59L17.59,7L19,8.41L15.41,12L19,15.59M22,3A2,2 0 0,1 24,5V19A2,2 0 0,1 22,21H7C6.31,21 5.77,20.64 5.41,20.11L0,12L5.41,3.88C5.77,3.35 6.31,3 7,3H22M22,5H7L2.28,12L7,19H22V5Z" /></svg>
</svg>
<svg id="mdi:keyboard-esc">
<svg xmlns="http://www.w3.org/2000/svg" id="mdi-keyboard-esc" viewBox="0 0 24 24"><path d="M1 7H7V9H3V11H7V13H3V15H7V17H1V7M11 7H15V9H11V11H13C14.11 11 15 11.9 15 13V15C15 16.11 14.11 17 13 17H9V15H13V13H11C9.9 13 9 12.11 9 11V9C9 7.9 9.9 7 11 7M19 7H21C22.11 7 23 7.9 23 9V10H21V9H19V15H21V14H23V15C23 16.11 22.11 17 21 17H19C17.9 17 17 16.11 17 15V9C17 7.9 17.9 7 19 7Z" /></svg>
</svg>
<svg id="mdi:layers-triple-outline">
<svg xmlns="http://www.w3.org/2000/svg" id="mdi-layers-triple-outline" viewBox="0 0 24 24"><path d="M12 16.54L19.37 10.8L21 12.07L12 19.07L3 12.07L4.62 10.81L12 16.54M12 14L3 7L12 0L21 7L12 14M12 2.53L6.26 7L12 11.47L17.74 7L12 2.53M12 21.47L19.37 15.73L21 17L12 24L3 17L4.62 15.74L12 21.47" /></svg>
</svg>
<svg id="mdi:lock-outline">
<svg xmlns="http://www.w3.org/2000/svg" id="mdi-lock-outline" viewBox="0 0 24 24"><path d="M12,17C10.89,17 10,16.1 10,15C10,13.89 10.89,13 12,13A2,2 0 0,1 14,15A2,2 0 0,1 12,17M18,20V10H6V20H18M18,8A2,2 0 0,1 20,10V20A2,2 0 0,1 18,22H6C4.89,22 4,21.1 4,20V10C4,8.89 4.89,8 6,8H7V6A5,5 0 0,1 12,1A5,5 0 0,1 17,6V8H18M12,3A3,3 0 0,0 9,6V8H15V6A3,3 0 0,0 12,3Z" /></svg>
</svg>
<svg id="mdi:star-four-points-box">
<svg xmlns="http://www.w3.org/2000/svg" id="mdi-star-four-points-box" viewBox="0 0 24 24"><path d="M5 3H19C20.1 3 21 3.89 21 5V19C21 19.53 20.79 20.04 20.41 20.41C20.04 20.79 19.53 21 19 21H5C4.47 21 3.96 20.79 3.59 20.41C3.21 20.04 3 19.53 3 19V5C3 3.89 3.89 3 5 3M12 17L13.56 13.58L17 12L13.56 10.44L12 7L10.43 10.44L7 12L10.43 13.58L12 17Z" /></svg>
</svg>
<svg id="mdi:swap-horizontal">
<svg xmlns="http://www.w3.org/2000/svg" id="mdi-swap-horizontal" viewBox="0 0 24 24"><path d="M21,9L17,5V8H10V10H17V13M7,11L3,15L7,19V16H14V14H7V11Z" /></svg>
</svg>
</defs>/* end glyphs */
<style>/* inherit to force styles through use tags */
svg path {
    fill: inherit;
}

/* font and background color specifications */
svg.keymap {
    font-family: SFMono-Regular,Consolas,Liberation Mono,Menlo,monospace;
    font-size: 14px;
    font-kerning: normal;
    text-rendering: optimizeLegibility;
    fill: #24292e;
}

/* default key styling */
rect.key {
    fill: #f6f8fa;
}

rect.key, rect.combo {
    stroke: #c9cccf;
    stroke-width: 1;
}

/* default key side styling, only used is draw_key_sides is set */
rect.side {
    filter: brightness(90%);
}

/* color accent for combo boxes */
rect.combo, rect.combo-separate {
    fill: #cdf;
}

/* color accent for held keys */
rect.held, rect.combo.held {
    fill: #fdd;
}

/* color accent for ghost (optional) keys */
rect.ghost, rect.combo.ghost {
    stroke-dasharray: 4, 4;
    stroke-width: 2;
}

text {
    text-anchor: middle;
    dominant-baseline: middle;
}

/* styling for layer labels */
text.label {
    font-weight: bold;
    text-anchor: start;
    stroke: white;
    stroke-width: 4;
    paint-order: stroke;
}

/* styling for optional footer */
text.footer {
    text-anchor: end;
    dominant-baseline: auto;
    stroke: white;
    stroke-width: 4;
    paint-order: stroke;
}

/* styling for combo tap, and key non-tap label text */
text.combo, text.hold, text.shifted, text.left, text.right, text.tl, text.tr, text.bl, text.br {
    font-size: 11px;
}

text.hold, text.bl, text.br {
    text-anchor: middle;
    dominant-baseline: auto;
}

text.shifted, text.tl, text.tr {
    text-anchor: middle;
    dominant-baseline: hanging;
}

text.left, text.tl, text.bl {
    text-anchor: start;
}

text.right, text.tr, text.br {
    text-anchor: end;
}

text.layer-activator {
    text-decoration: underline;
}

/* styling for hold/shifted label text in combo box */
text.combo.hold, text.combo.shifted, text.combo.left, text.combo.right {
    font-size: 8px;
}

/* lighter symbol for transparent keys */
text.trans {
    fill: #7b7e81;
}

/* styling for combo dendrons */
path.combo {
    stroke-width: 1;
    stroke: gray;
    fill: none;
}

/* Start Tabler Icons Cleanup */
/* cannot use height/width with glyphs */
.icon-tabler > path {
    fill: inherit;
    stroke: inherit;
    stroke-width: 2;
}
/* hide tabler's default box */
.icon-tabler > path[stroke="none"][fill="none"] {
    visibility: hidden;
}
/* End Tabler Icons Cleanup */

.key.modifier rect { fill: #d6e5f5; stroke: #4a7ab8; }
.key.modifier :not(rect) { fill: #4a7ab8; }
.key.nav rect { fill: #d9f0d9; stroke: #5ca75c; }
.key.nav :not(rect) { fill: #5ca75c; }
.key.editing rect { fill: #ffe4d1; stroke: #e88a3a; }
.key.editing :not(rect) { fill: #e88a3a; }
.key.layer rect { fill: #ead9eb; stroke: #9a5fa1; }
.key.layer :not(rect) { fill: #9a5fa1; }
.key.system rect { fill: #fff4d1; stroke: #e8b52a; }
.key.system :not(rect) { fill: #e8b52a; }
.key.symbol rect { fill: #d4f0e8; stroke: #4aa78a; }
.key.symbol :not(rect) { fill: #4aa78a; }
.key.accent rect { fill: #ffe0d6; stroke: #e86d4a; }
.key.accent :not(rect) { fill: #e86d4a; }
</style>
<g transform="translate(30, 0)" class="layer-FAVS">
<text x="0" y="28" class="label" id="FAVS">FAVS</text>
<g transform="translate(0, 56)">
<g transform="translate(30, 45)" class="key keypos-0">
<rect rx="6" ry="6" x="-28" y="-28" width="56" height="56" class="key"/>
</g>
<g transform="translate(90, 45)" class="key keypos-1">
<rect rx="6" ry="6" x="-28" y="-28" width="56" height="56" class="key"/>
</g>
<g transform="translate(150, 38)" class="key keypos-2">
<rect rx="6" ry="6" x="-28" y="-28" width="56" height="56" class="key"/>
</g>
<g transform="translate(210, 30)" class="key keypos-3">
<rect rx="6" ry="6" x="-28" y="-28" width="56" height="56" class="key"/>
</g>
<g transform="translate(270, 38)" class="key keypos-4">
<rect rx="6" ry="6" x="-28" y="-28" width="56" height="56" class="key"/>
</g>
<g transform="translate(330, 45)" class="key keypos-5">
<rect rx="6" ry="6" x="-28" y="-28" width="56" height="56" class="key"/>
</g>
<g transform="translate(510, 45)" class="key nav keypos-6">
<rect rx="6" ry="6" x="-28" y="-28" width="56" height="56" class="key nav"/>
<text x="0" y="0" class="key nav tap">PgUp</text>
</g>
<g transform="translate(570, 38)" class="key nav keypos-7">
<rect rx="6" ry="6" x="-28" y="-28" width="56" height="56" class="key nav"/>
<text x="0" y="0" class="key nav tap">L←</text>
</g>
<g transform="translate(630, 30)" class="key nav keypos-8">
<rect rx="6" ry="6" x="-28" y="-28" width="56" height="56" class="key nav"/>
<use href="#mdi:arrow-up" xlink:href="#mdi:arrow-up" x="-7" y="-7" height="14" width="14.0" class="key nav tap glyph mdi:arrow-up"/>
</g>
<g transform="translate(690, 38)" class="key nav keypos-9">
<rect rx="6" ry="6" x="-28" y="-28" width="56" height="56" class="key nav"/>
<text x="0" y="0" class="key nav tap">L→</text>
</g>
<g transform="translate(750, 45)" class="key keypos-10">
<rect rx="6" ry="6" x="-28" y="-28" width="56" height="56" class="key"/>
</g>
<g transform="translate(810, 45)" class="key keypos-11">
<rect rx="6" ry="6" x="-28" y="-28" width="56" height="56" class="key"/>
</g>
<g transform="translate(30, 105)" class="key editing keypos-12">
<rect rx="6" ry="6" x="-28" y="-28" width="56" height="56" class="key editing"/>
<use href="#mdi:keyboard-esc" xlink:href="#mdi:keyboard-esc" x="-7" y="-7" height="14" width="14.0" class="key editing tap glyph mdi:keyboard-esc"/>
</g>
<g transform="translate(90, 105)" class="key layer keypos-13">
<rect rx="6" ry="6" x="-28" y="-28" width="56" height="56" class="key layer"/>
<use href="#mdi:lock-outline" xlink:href="#mdi:lock-outline" x="-7" y="-7" height="14" width="14.0" class="key layer tap glyph mdi:lock-outline"/>
<text x="0" y="26" class="key layer hold"><tspan style="font-size: 70%">Layer Lock</tspan></text>
</g>
<g transform="translate(150, 98)" class="key layer keypos-14">
<rect rx="6" ry="6" x="-28" y="-28" width="56" height="56" class="key layer"/>
<use href="#mdi:backspace-outline" xlink:href="#mdi:backspace-outline" x="-7" y="-7" height="14" width="14.0" class="key layer tap glyph mdi:backspace-outline"/>
<text x="0" y="26" class="key layer hold"><tspan style="font-size: 64%">Delete (ho…</tspan></text>
</g>
<g transform="translate(210, 90)" class="key modifier keypos-15">
<rect rx="6" ry="6" x="-28" y="-28" width="56" height="56" class="key modifier"/>
<use href="#mdi:apple-keyboard-shift" xlink:href="#mdi:apple-keyboard-shift" x="-7" y="-7" height="14" width="14.0" class="key modifier tap glyph mdi:apple-keyboard-shift"/>
<text x="0" y="26" class="key modifier hold">Latch</text>
</g>
<g transform="translate(270, 98)" class="key modifier keypos-16">
<rect rx="6" ry="6" x="-28" y="-28" width="56" height="56" class="key modifier"/>
<use href="#mdi:star-four-points-box" xlink:href="#mdi:star-four-points-box" x="-7" y="-7" height="14" width="14.0" class="key modifier tap glyph mdi:star-four-points-box"/>
<text x="0" y="26" class="key modifier hold"><tspan style="font-size: 88%">GUI/Ctrl</tspan></text>
</g>
<g transform="translate(330, 105)" class="key system keypos-17">
<rect rx="6" ry="6" x="-28" y="-28" width="56" height="56" class="key system"/>
<use href="#mdi:swap-horizontal" xlink:href="#mdi:swap-horizontal" x="-7" y="-7" height="14" width="14.0" class="key system tap glyph mdi:swap-horizontal"/>
</g>
<g transform="translate(510, 105)" class="key nav keypos-18">
<rect rx="6" ry="6" x="-28" y="-28" width="56" height="56" class="key nav"/>
<text x="0" y="0" class="key nav tap">PgDn</text>
</g>
<g transform="translate(570, 98)" class="key nav keypos-19">
<rect rx="6" ry="6" x="-28" y="-28" width="56" height="56" class="key nav"/>
<use href="#mdi:arrow-left" xlink:href="#mdi:arrow-left" x="-7" y="-7" height="14" width="14.0" class="key nav tap glyph mdi:arrow-left"/>
</g>
<g transform="translate(630, 90)" class="key nav keypos-20">
<rect rx="6" ry="6" x="-28" y="-28" width="56" height="56" class="key nav"/>
<use href="#mdi:arrow-down" xlink:href="#mdi:arrow-down" x="-7" y="-7" height="14" width="14.0" class="key nav tap glyph mdi:arrow-down"/>
</g>
<g transform="translate(690, 98)" class="key nav keypos-21">
<rect rx="6" ry="6" x="-28" y="-28" width="56" height="56" class="key nav"/>
<use href="#mdi:arrow-right" xlink:href="#mdi:arrow-right" x="-7" y="-7" height="14" width="14.0" class="key nav tap glyph mdi:arrow-right"/>
</g>
<g transform="translate(750, 105)" class="key keypos-22">
<rect rx="6" ry="6" x="-28" y="-28" width="56" height="56" class="key"/>
</g>
<g transform="translate(810, 105)" class="key editing keypos-23">
<rect rx="6" ry="6" x="-28" y="-28" width="56" height="56" class="key editing"/>
<text x="0" y="0" class="key editing tap">Del</text>
</g>
<g transform="translate(30, 165)" class="key trans keypos-24">
<rect rx="6" ry="6" x="-28" y="-28" width="56" height="56" class="key trans"/>
<text x="0" y="0" class="key trans tap">▽</text>
</g>
<g transform="translate(90, 165)" class="key system keypos-25">
<rect rx="6" ry="6" x="-28" y="-28" width="56" height="56" class="key system"/>
<text x="0" y="0" class="key system tap">Undo</text>
</g>
<g transform="translate(150, 158)" class="key system keypos-26">
<rect rx="6" ry="6" x="-28" y="-28" width="56" height="56" class="key system"/>
<text x="0" y="0" class="key system tap">Cut</text>
</g>
<g transform="translate(210, 150)" class="key system keypos-27">
<rect rx="6" ry="6" x="-28" y="-28" width="56" height="56" class="key system"/>
<text x="0" y="0" class="key system tap">Copy</text>
</g>
<g transform="translate(270, 158)" class="key system keypos-28">
<rect rx="6" ry="6" x="-28" y="-28" width="56" height="56" class="key system"/>
<text x="0" y="0" class="key system tap">Paste</text>
</g>
<g transform="translate(330, 165)" class="key keypos-29">
<rect rx="6" ry="6" x="-28" y="-28" width="56" height="56" class="key"/>
</g>
<g transform="translate(510, 165)" class="key keypos-30">
<rect rx="6" ry="6" x="-28" y="-28" width="56" height="56" class="key"/>
</g>
<g transform="translate(570, 158)" class="key nav keypos-31">
<rect rx="6" ry="6" x="-28" y="-28" width="56" height="56" class="key nav"/>
<text x="0" y="0" class="key nav tap">W←</text>
</g>
<g transform="translate(630, 150)" class="key keypos-32">
<rect rx="6" ry="6" x="-28" y="-28" width="56" height="56" class="key"/>
</g>
<g transform="translate(690, 158)" class="key nav keypos-33">
<rect rx="6" ry="6" x="-28" y="-28" width="56" height="56" class="key nav"/>
<text x="0" y="0" class="key nav tap">W→</text>
</g>
<g transform="translate(750, 165)" class="key keypos-34">
<rect rx="6" ry="6" x="-28" y="-28" width="56" height="56" class="key"/>
</g>
<g transform="translate(810, 165)" class="key trans keypos-35">
<rect rx="6" ry="6" x="-28" y="-28" width="56" height="56" class="key trans"/>
<text x="0" y="0" class="key trans tap">▽</text>
</g>
<g transform="translate(240, 225)" class="key trans keypos-36">
<rect rx="6" ry="6" x="-28" y="-28" width="56" height="56" class="key trans"/>
<text x="0" y="0" class="key trans tap">▽</text>
</g>
<g transform="translate(300, 240)" class="key trans keypos-37">
<rect rx="6" ry="6" x="-28" y="-28" width="56" height="56" class="key trans"/>
<text x="0" y="0" class="key trans tap">▽</text>
</g>
<g transform="translate(360, 255)" class="key keypos-38">
<rect rx="6" ry="6" x="-28" y="-28" width="56" height="56" class="key"/>
</g>
<g transform="translate(480, 255)" class="key layer keypos-39">
<rect rx="6" ry="6" x="-28" y="-28" width="56" height="56" class="key layer"/>
<use href="#mdi:layers-triple-outline" xlink:href="#mdi:layers-triple-outline" x="-7" y="-7" height="14" width="14.0" class="key layer tap glyph mdi:layers-triple-outline"/>
<text x="0" y="26" class="key layer hold">ADJUST</text>
</g>
<g transform="translate(540, 240)" class="key trans keypos-40">
<rect rx="6" ry="6" x="-28" y="-28" width="56" height="56" class="key trans"/>
<text x="0" y="0" class="key trans tap">▽</text>
</g>
<g transform="translate(600, 225)" class="key trans keypos-41">
<rect rx="6" ry="6" x="-28" y="-28" width="56" height="56" class="key trans"/>
<text x="0" y="0" class="key trans tap">▽</text>
</g>
</g>
</g>
</svg>
