<svg width="900" height="397" viewBox="0 0 900 397" class="keymap" xmlns="http://www.w3.org/2000/svg" xmlns:xlink="http://www.w3.org/1999/xlink">
<style>/* inherit to force styles through use tags */
svg path {
    fill: inherit;
}

/* font and background color specifications */
svg.keymap {
    font-family: SFMono-Regular,Consolas,Liberation Mono,Menlo,monospace;
    font-size: 14px;
    font-kerning: normal;
    text-rendering: optimizeLegibility;
    fill: #24292e;
}

/* default key styling */
rect.key {
    fill: #f6f8fa;
}

rect.key, rect.combo {
    stroke: #c9cccf;
    stroke-width: 1;
}

/* default key side styling, only used is draw_key_sides is set */
rect.side {
    filter: brightness(90%);
}

/* color accent for combo boxes */
rect.combo, rect.combo-separate {
    fill: #cdf;
}

/* color accent for held keys */
rect.held, rect.combo.held {
    fill: #fdd;
}

/* color accent for ghost (optional) keys */
rect.ghost, rect.combo.ghost {
    stroke-dasharray: 4, 4;
    stroke-width: 2;
}

text {
    text-anchor: middle;
    dominant-baseline: middle;
}

/* styling for layer labels */
text.label {
    font-weight: bold;
    text-anchor: start;
    stroke: white;
    stroke-width: 4;
    paint-order: stroke;
}

/* styling for optional footer */
text.footer {
    text-anchor: end;
    dominant-baseline: auto;
    stroke: white;
    stroke-width: 4;
    paint-order: stroke;
}

/* styling for combo tap, and key non-tap label text */
text.combo, text.hold, text.shifted, text.left, text.right, text.tl, text.tr, text.bl, text.br {
    font-size: 11px;
}

text.hold, text.bl, text.br {
    text-anchor: middle;
    dominant-baseline: auto;
}

text.shifted, text.tl, text.tr {
    text-anchor: middle;
    dominant-baseline: hanging;
}

text.left, text.tl, text.bl {
    text-anchor: start;
}

text.right, text.tr, text.br {
    text-anchor: end;
}

text.layer-activator {
    text-decoration: underline;
}

/* styling for hold/shifted label text in combo box */
text.combo.hold, text.combo.shifted, text.combo.left, text.combo.right {
    font-size: 8px;
}

/* lighter symbol for transparent keys */
text.trans {
    fill: #7b7e81;
}

/* styling for combo dendrons */
path.combo {
    stroke-width: 1;
    stroke: gray;
    fill: none;
}

/* Start Tabler Icons Cleanup */
/* cannot use height/width with glyphs */
.icon-tabler > path {
    fill: inherit;
    stroke: inherit;
    stroke-width: 2;
}
/* hide tabler's default box */
.icon-tabler > path[stroke="none"][fill="none"] {
    visibility: hidden;
}
/* End Tabler Icons Cleanup */

.key.modifier rect { fill: #d6e5f5; stroke: #4a7ab8; }
.key.modifier :not(rect) { fill: #4a7ab8; }
.key.nav rect { fill: #d9f0d9; stroke: #5ca75c; }
.key.nav :not(rect) { fill: #5ca75c; }
.key.editing rect { fill: #ffe4d1; stroke: #e88a3a; }
.key.editing :not(rect) { fill: #e88a3a; }
.key.layer rect { fill: #ead9eb; stroke: #9a5fa1; }
.key.layer :not(rect) { fill: #9a5fa1; }
.key.system rect { fill: #fff4d1; stroke: #e8b52a; }
.key.system :not(rect) { fill: #e8b52a; }
.key.symbol rect { fill: #d4f0e8; stroke: #4aa78a; }
.key.symbol :not(rect) { fill: #4aa78a; }
.key.accent rect { fill: #ffe0d6; stroke: #e86d4a; }
.key.accent :not(rect) { fill: #e86d4a; }
</style>
<g transform="translate(30, 0)" class="layer-ACCENTS">
<text x="0" y="28" class="label" id="ACCENTS">ACCENTS</text>
<g transform="translate(0, 56)">
<g transform="translate(30, 45)" class="key keypos-0">
<rect rx="6" ry="6" x="-28" y="-28" width="56" height="56" class="key"/>
</g>
<g transform="translate(90, 45)" class="key keypos-1">
<rect rx="6" ry="6" x="-28" y="-28" width="56" height="56" class="key"/>
</g>
<g transform="translate(150, 38)" class="key accent keypos-2">
<rect rx="6" ry="6" x="-28" y="-28" width="56" height="56" class="key accent"/>
<text x="0" y="0" class="key accent tap">€</text>
<text x="0" y="26" class="key accent hold">Euro</text>
</g>
<g transform="translate(210, 30)" class="key accent keypos-3">
<rect rx="6" ry="6" x="-28" y="-28" width="56" height="56" class="key accent"/>
<text x="0" y="0" class="key accent tap">´</text>
<text x="0" y="26" class="key accent hold"><tspan style="font-size: 64%">Acute dead…</tspan></text>
</g>
<g transform="translate(270, 38)" class="key keypos-4">
<rect rx="6" ry="6" x="-28" y="-28" width="56" height="56" class="key"/>
</g>
<g transform="translate(330, 45)" class="key keypos-5">
<rect rx="6" ry="6" x="-28" y="-28" width="56" height="56" class="key"/>
</g>
<g transform="translate(510, 45)" class="key keypos-6">
<rect rx="6" ry="6" x="-28" y="-28" width="56" height="56" class="key"/>
</g>
<g transform="translate(570, 38)" class="key accent keypos-7">
<rect rx="6" ry="6" x="-28" y="-28" width="56" height="56" class="key accent"/>
<text x="0" y="0" class="key accent tap">¨</text>
<text x="0" y="26" class="key accent hold"><tspan style="font-size: 64%">Diaeresis …</tspan></text>
</g>
<g transform="translate(630, 30)" class="key keypos-8">
<rect rx="6" ry="6" x="-28" y="-28" width="56" height="56" class="key"/>
</g>
<g transform="translate(690, 38)" class="key accent keypos-9">
<rect rx="6" ry="6" x="-28" y="-28" width="56" height="56" class="key accent"/>
<text x="0" y="0" class="key accent tap">^</text>
<text x="0" y="26" class="key accent hold"><tspan style="font-size: 64%">Circumflex…</tspan></text>
</g>
<g transform="translate(750, 45)" class="key keypos-10">
<rect rx="6" ry="6" x="-28" y="-28" width="56" height="56" class="key"/>
</g>
<g transform="translate(810, 45)" class="key keypos-11">
<rect rx="6" ry="6" x="-28" y="-28" width="56" height="56" class="key"/>
</g>
<g transform="translate(30, 105)" class="key keypos-12">
<rect rx="6" ry="6" x="-28" y="-28" width="56" height="56" class="key"/>
</g>
<g transform="translate(90, 105)" class="key accent keypos-13">
<rect rx="6" ry="6" x="-28" y="-28" width="56" height="56" class="key accent"/>
<text x="0" y="0" class="key accent tap">`</text>
<text x="0" y="26" class="key accent hold"><tspan style="font-size: 64%">Grave dead…</tspan></text>
</g>
<g transform="translate(150, 98)" class="key keypos-14">
<rect rx="6" ry="6" x="-28" y="-28" width="56" height="56" class="key"/>
</g>
<g transform="translate(210, 90)" class="key keypos-15">
<rect rx="6" ry="6" x="-28" y="-28" width="56" height="56" class="key"/>
</g>
<g transform="translate(270, 98)" class="key keypos-16">
<rect rx="6" ry="6" x="-28" y="-28" width="56" height="56" class="key"/>
</g>
<g transform="translate(330, 105)" class="key keypos-17">
<rect rx="6" ry="6" x="-28" y="-28" width="56" height="56" class="key"/>
</g>
<g transform="translate(510, 105)" class="key keypos-18">
<rect rx="6" ry="6" x="-28" y="-28" width="56" height="56" class="key"/>
</g>
<g transform="translate(570, 98)" class="key keypos-19">
<rect rx="6" ry="6" x="-28" y="-28" width="56" height="56" class="key"/>
</g>
<g transform="translate(630, 90)" class="key keypos-20">
<rect rx="6" ry="6" x="-28" y="-28" width="56" height="56" class="key"/>
</g>
<g transform="translate(690, 98)" class="key keypos-21">
<rect rx="6" ry="6" x="-28" y="-28" width="56" height="56" class="key"/>
</g>
<g transform="translate(750, 105)" class="key keypos-22">
<rect rx="6" ry="6" x="-28" y="-28" width="56" height="56" class="key"/>
</g>
<g transform="translate(810, 105)" class="key keypos-23">
<rect rx="6" ry="6" x="-28" y="-28" width="56" height="56" class="key"/>
</g>
<g transform="translate(30, 165)" class="key keypos-24">
<rect rx="6" ry="6" x="-28" y="-28" width="56" height="56" class="key"/>
</g>
<g transform="translate(90, 165)" class="key keypos-25">
<rect rx="6" ry="6" x="-28" y="-28" width="56" height="56" class="key"/>
</g>
<g transform="translate(150, 158)" class="key keypos-26">
<rect rx="6" ry="6" x="-28" y="-28" width="56" height="56" class="key"/>
</g>
<g transform="translate(210, 150)" class="key accent keypos-27">
<rect rx="6" ry="6" x="-28" y="-28" width="56" height="56" class="key accent"/>
<text x="0" y="0" class="key accent tap">ç</text>
<text x="0" y="26" class="key accent hold">Cedilla</text>
</g>
<g transform="translate(270, 158)" class="key keypos-28">
<rect rx="6" ry="6" x="-28" y="-28" width="56" height="56" class="key"/>
</g>
<g transform="translate(330, 165)" class="key keypos-29">
<rect rx="6" ry="6" x="-28" y="-28" width="56" height="56" class="key"/>
</g>
<g transform="translate(510, 165)" class="key keypos-30">
<rect rx="6" ry="6" x="-28" y="-28" width="56" height="56" class="key"/>
</g>
<g transform="translate(570, 158)" class="key accent keypos-31">
<rect rx="6" ry="6" x="-28" y="-28" width="56" height="56" class="key accent"/>
<text x="0" y="0" class="key accent tap">ñ</text>
<text x="0" y="26" class="key accent hold"><tspan style="font-size: 64%">N with til…</tspan></text>
</g>
<g transform="translate(630, 150)" class="key keypos-32">
<rect rx="6" ry="6" x="-28" y="-28" width="56" height="56" class="key"/>
</g>
<g transform="translate(690, 158)" class="key keypos-33">
<rect rx="6" ry="6" x="-28" y="-28" width="56" height="56" class="key"/>
</g>
<g transform="translate(750, 165)" class="key keypos-34">
<rect rx="6" ry="6" x="-28" y="-28" width="56" height="56" class="key"/>
</g>
<g transform="translate(810, 165)" class="key keypos-35">
<rect rx="6" ry="6" x="-28" y="-28" width="56" height="56" class="key"/>
</g>
<g transform="translate(240, 225)" class="key keypos-36">
<rect rx="6" ry="6" x="-28" y="-28" width="56" height="56" class="key"/>
</g>
<g transform="translate(300, 240)" class="key modifier keypos-37">
<rect rx="6" ry="6" x="-28" y="-28" width="56" height="56" class="key modifier"/>
<text x="0" y="0" class="key modifier tap">Leader</text>
<text x="0" y="26" class="key modifier hold"><tspan style="font-size: 64%">Tap Shift …</tspan></text>
</g>
<g transform="translate(360, 255)" class="key keypos-38">
<rect rx="6" ry="6" x="-28" y="-28" width="56" height="56" class="key"/>
</g>
<g transform="translate(480, 255)" class="key keypos-39">
<rect rx="6" ry="6" x="-28" y="-28" width="56" height="56" class="key"/>
</g>
<g transform="translate(540, 240)" class="key keypos-40">
<rect rx="6" ry="6" x="-28" y="-28" width="56" height="56" class="key"/>
</g>
<g transform="translate(600, 225)" class="key keypos-41">
<rect rx="6" ry="6" x="-28" y="-28" width="56" height="56" class="key"/>
</g>
</g>
</g>
</svg>
