<svg width="900" height="397" viewBox="0 0 900 397" class="keymap" xmlns="http://www.w3.org/2000/svg" xmlns:xlink="http://www.w3.org/1999/xlink"><defs><filter id="sh" x="-50%" y="-50%" width="200%" height="200%" color-interpolation-filters="sRGB"><feGaussianBlur stdDeviation="1.6"/></filter></defs><rect x="0" y="0" width="100%" height="100%" fill="#faf8f4"/>
<defs>/* start glyphs */
<svg id="mdi:layers-triple-outline">
<svg xmlns="http://www.w3.org/2000/svg" id="mdi-layers-triple-outline" viewBox="0 0 24 24"><path d="M12 16.54L19.37 10.8L21 12.07L12 19.07L3 12.07L4.62 10.81L12 16.54M12 14L3 7L12 0L21 7L12 14M12 2.53L6.26 7L12 11.47L17.74 7L12 2.53M12 21.47L19.37 15.73L21 17L12 24L3 17L4.62 15.74L12 21.47" /><defs><pattern id="stripes" patternUnits="userSpaceOnUse" width="8" height="8" patternTransform="rotate(45)"><rect width="8" height="8" fill="#efefef"/><rect width="4" height="8" fill="#c8c8c8"/></pattern></defs></svg>
<defs><pattern id="stripes" patternUnits="userSpaceOnUse" width="8" height="8" patternTransform="rotate(45)"><rect width="8" height="8" fill="#efefef"/><rect width="4" height="8" fill="#c8c8c8"/></pattern></defs></svg>
<svg id="mdi:lock-outline">
<svg xmlns="http://www.w3.org/2000/svg" id="mdi-lock-outline" viewBox="0 0 24 24"><path d="M12,17C10.89,17 10,16.1 10,15C10,13.89 10.89,13 12,13A2,2 0 0,1 14,15A2,2 0 0,1 12,17M18,20V10H6V20H18M18,8A2,2 0 0,1 20,10V20A2,2 0 0,1 18,22H6C4.89,22 4,21.1 4,20V10C4,8.89 4.89,8 6,8H7V6A5,5 0 0,1 12,1A5,5 0 0,1 17,6V8H18M12,3A3,3 0 0,0 9,6V8H15V6A3,3 0 0,0 12,3Z" /><defs><pattern id="stripes" patternUnits="userSpaceOnUse" width="8" height="8" patternTransform="rotate(45)"><rect width="8" height="8" fill="#efefef"/><rect width="4" height="8" fill="#c8c8c8"/></pattern></defs></svg>
<defs><pattern id="stripes" patternUnits="userSpaceOnUse" width="8" height="8" patternTransform="rotate(45)"><rect width="8" height="8" fill="#efefef"/><rect width="4" height="8" fill="#c8c8c8"/></pattern></defs></svg>
</defs>/* end glyphs */
<style>/* inherit to force styles through use tags */
svg path {
    fill: inherit;
}

/* font and background color specifications */
svg.keymap {
    font-family: 'Source Sans 3','Source Sans Pro',sans-serif;
    font-size: 14px;
    font-kerning: normal;
    text-rendering: optimizeLegibility;
    fill: #24292e;
}

/* default key styling */
rect.key {
    fill: #f6f8fa;
}

rect.key, rect.combo {
    stroke: #c9cccf;
    stroke-width: 1;
}

/* default key side styling, only used is draw_key_sides is set */
rect.side {
    filter: brightness(90%);
}

/* color accent for combo boxes */
rect.combo, rect.combo-separate {
    fill: #cdf;
}

/* color accent for held keys */
rect.held, rect.combo.held {
    fill: #fdd;
}

/* color accent for ghost (optional) keys */
rect.ghost, rect.combo.ghost {
    stroke-dasharray: 4, 4;
    stroke-width: 2;
}

text {
    text-anchor: middle;
    dominant-baseline: middle;
}

/* styling for layer labels */
text.label {
    font-weight: 600;
    font-size: 20px;
    letter-spacing: 0.08em;
    fill: #5a5048;
    text-anchor: start;
    stroke: white;
    stroke-width: 4;
    paint-order: stroke;
}

/* styling for optional footer */
text.footer {
    text-anchor: end;
    dominant-baseline: auto;
    stroke: white;
    stroke-width: 4;
    paint-order: stroke;
}

/* styling for combo tap, and key non-tap label text */
text.combo, text.hold, text.shifted, text.left, text.right, text.tl, text.tr, text.bl, text.br {
    font-size: 11px;
}

text.hold, text.bl, text.br {
    text-anchor: middle;
    dominant-baseline: auto;
}

text.shifted, text.tl, text.tr {
    text-anchor: middle;
    dominant-baseline: hanging;
}

text.left, text.tl, text.bl {
    text-anchor: start;
}

text.right, text.tr, text.br {
    text-anchor: end;
}

text.layer-activator {
    text-decoration: underline;
}

/* styling for hold/shifted label text in combo box */
text.combo.hold, text.combo.shifted, text.combo.left, text.combo.right {
    font-size: 8px;
}

/* lighter symbol for transparent keys */
text.trans {
    fill: #7b7e81;
}

/* styling for combo dendrons */
path.combo {
    stroke-width: 1;
    stroke: gray;
    fill: none;
}

/* Start Tabler Icons Cleanup */
/* cannot use height/width with glyphs */
.icon-tabler > path {
    fill: inherit;
    stroke: inherit;
    stroke-width: 2;
}
/* hide tabler's default box */
.icon-tabler > path[stroke="none"][fill="none"] {
    visibility: hidden;
}
/* End Tabler Icons Cleanup */

/* Two-tier palette: pale fills = content regions (ambient), vivid = behavior */
/* Tier 1 - ambient content categories (default dark text) */
/* Palette: grey = alphas/trans (default), white = unused, green = symbols,
   purple = layers, blue = navigation (incl. latches), orange = everything else */
svg.keymap { fill: #36322e; }
.key.none rect.key { fill: white; opacity: 50%; }
.key.symbol rect.key { fill: #e9f5f0; stroke: #bedfd2; }
.key.layer rect.key { fill: #ead9eb; stroke: #9a5fa1; }
.key.layer.tap, .key.layer.hold, .key.layer.shifted { fill: #9a5fa1; }
.key.nav rect.key { fill: #dbe9f8; stroke: #6b97c9; }
.key.delhold.tap, .key.delhold.hold, .key.delhold.shifted { fill: #c25f54; }
.key.editing rect.key, .key.state rect.key, .key.danger rect.key, .key.modifier rect.key { fill: #fdebd9; stroke: #dd9d57; }
.key.system rect.key { fill: #f9f0c9; stroke: #cdb94e; }
.key.modifier.tap, .key.modifier.hold, .key.modifier.shifted { fill: #b06c1f; }
.key.modtap.hold { fill: #4a7ab8; font-weight: bold; }
.key.held rect.key { fill: url(#stripes); stroke: #999999; }
.combo.state rect.key { fill: #fdebd9; stroke: #dd9d57; }
.combo.symbol rect.key { fill: #e9f5f0; stroke: #bedfd2; }
.key.shifted { transform: translateY(2px); }
.key.hold {transform: translateY(-2px); }
</style>
<g transform="translate(30, 0)" class="layer-1 · Numbers &amp; Symbols">
<text x="0" y="28" class="label" id="Numbers--Symbols">1 · Numbers &amp; Symbols</text>
<g transform="translate(0, 56)">
<g transform="translate(30, 45)" class="key none keypos-0">
<rect rx="5" ry="5" x="-28" y="-28" width="56" height="56" class="key none"/>
</g>
<g transform="translate(90, 45)" class="key symbol keypos-1">
<rect x="-25.2" y="-25.5" width="54" height="54" rx="3" ry="3" fill="#3a2f25" opacity="0.16" filter="url(#sh)"/><rect rx="5" ry="5" x="-28" y="-28" width="56" height="56" class="key symbol"/>
<text x="0" y="0" class="key symbol tap">```</text>
</g>
<g transform="translate(150, 38)" class="key keypos-2">
<rect x="-25.2" y="-25.5" width="54" height="54" rx="3" ry="3" fill="#3a2f25" opacity="0.16" filter="url(#sh)"/><rect rx="5" ry="5" x="-28" y="-28" width="56" height="56" class="key"/>
<text style="font-family:SFMono-Regular,Consolas,Liberation Mono,Menlo,monospace" x="0" y="0" class="key tap">7</text>
</g>
<g transform="translate(210, 30)" class="key keypos-3">
<rect x="-25.2" y="-25.5" width="54" height="54" rx="3" ry="3" fill="#3a2f25" opacity="0.16" filter="url(#sh)"/><rect rx="5" ry="5" x="-28" y="-28" width="56" height="56" class="key"/>
<text style="font-family:SFMono-Regular,Consolas,Liberation Mono,Menlo,monospace" x="0" y="0" class="key tap">8</text>
</g>
<g transform="translate(270, 38)" class="key keypos-4">
<rect x="-25.2" y="-25.5" width="54" height="54" rx="3" ry="3" fill="#3a2f25" opacity="0.16" filter="url(#sh)"/><rect rx="5" ry="5" x="-28" y="-28" width="56" height="56" class="key"/>
<text style="font-family:SFMono-Regular,Consolas,Liberation Mono,Menlo,monospace" x="0" y="0" class="key tap">9</text>
</g>
<g transform="translate(330, 45)" class="key none keypos-5">
<rect rx="5" ry="5" x="-28" y="-28" width="56" height="56" class="key none"/>
</g>
<g transform="translate(510, 45)" class="key symbol keypos-6">
<rect x="-25.2" y="-25.5" width="54" height="54" rx="3" ry="3" fill="#3a2f25" opacity="0.16" filter="url(#sh)"/><rect rx="5" ry="5" x="-28" y="-28" width="56" height="56" class="key symbol"/>
<text style="font-family:SFMono-Regular,Consolas,Liberation Mono,Menlo,monospace" x="0" y="0" class="key symbol tap">=</text>
<text style="font-family:SFMono-Regular,Consolas,Liberation Mono,Menlo,monospace" x="0" y="-26" class="key symbol shifted">+</text>
</g>
<g transform="translate(570, 38)" class="key symbol keypos-7">
<rect x="-25.2" y="-25.5" width="54" height="54" rx="3" ry="3" fill="#3a2f25" opacity="0.16" filter="url(#sh)"/><rect rx="5" ry="5" x="-28" y="-28" width="56" height="56" class="key symbol"/>
<text style="font-family:SFMono-Regular,Consolas,Liberation Mono,Menlo,monospace" x="0" y="0" class="key symbol tap">{</text>
<text style="font-family:SFMono-Regular,Consolas,Liberation Mono,Menlo,monospace" x="0" y="-26" class="key symbol shifted">[</text>
</g>
<g transform="translate(630, 30)" class="key symbol keypos-8">
<rect x="-25.2" y="-25.5" width="54" height="54" rx="3" ry="3" fill="#3a2f25" opacity="0.16" filter="url(#sh)"/><rect rx="5" ry="5" x="-28" y="-28" width="56" height="56" class="key symbol"/>
<text style="font-family:SFMono-Regular,Consolas,Liberation Mono,Menlo,monospace" x="0" y="0" class="key symbol tap">@</text>
<text style="font-family:SFMono-Regular,Consolas,Liberation Mono,Menlo,monospace" x="0" y="-26" class="key symbol shifted">#</text>
</g>
<g transform="translate(690, 38)" class="key symbol keypos-9">
<rect x="-25.2" y="-25.5" width="54" height="54" rx="3" ry="3" fill="#3a2f25" opacity="0.16" filter="url(#sh)"/><rect rx="5" ry="5" x="-28" y="-28" width="56" height="56" class="key symbol"/>
<text style="font-family:SFMono-Regular,Consolas,Liberation Mono,Menlo,monospace" x="0" y="0" class="key symbol tap">}</text>
<text style="font-family:SFMono-Regular,Consolas,Liberation Mono,Menlo,monospace" x="0" y="-26" class="key symbol shifted">]</text>
</g>
<g transform="translate(750, 45)" class="key symbol keypos-10">
<rect x="-25.2" y="-25.5" width="54" height="54" rx="3" ry="3" fill="#3a2f25" opacity="0.16" filter="url(#sh)"/><rect rx="5" ry="5" x="-28" y="-28" width="56" height="56" class="key symbol"/>
<text style="font-family:SFMono-Regular,Consolas,Liberation Mono,Menlo,monospace" x="0" y="0" class="key symbol tap">`</text>
<text style="font-family:SFMono-Regular,Consolas,Liberation Mono,Menlo,monospace" x="0" y="-26" class="key symbol shifted">~</text>
</g>
<g transform="translate(810, 45)" class="key none keypos-11">
<rect rx="5" ry="5" x="-28" y="-28" width="56" height="56" class="key none"/>
</g>
<g transform="translate(30, 105)" class="key none keypos-12">
<rect rx="5" ry="5" x="-28" y="-28" width="56" height="56" class="key none"/>
</g>
<g transform="translate(90, 105)" class="key keypos-13">
<rect x="-25.2" y="-25.5" width="54" height="54" rx="3" ry="3" fill="#3a2f25" opacity="0.16" filter="url(#sh)"/><rect rx="5" ry="5" x="-28" y="-28" width="56" height="56" class="key"/>
<text style="font-family:SFMono-Regular,Consolas,Liberation Mono,Menlo,monospace" x="0" y="0" class="key tap">0</text>
</g>
<g transform="translate(150, 98)" class="key keypos-14">
<rect x="-25.2" y="-25.5" width="54" height="54" rx="3" ry="3" fill="#3a2f25" opacity="0.16" filter="url(#sh)"/><rect rx="5" ry="5" x="-28" y="-28" width="56" height="56" class="key"/>
<text style="font-family:SFMono-Regular,Consolas,Liberation Mono,Menlo,monospace" x="0" y="0" class="key tap">1</text>
</g>
<g transform="translate(210, 90)" class="key keypos-15">
<rect x="-25.2" y="-25.5" width="54" height="54" rx="3" ry="3" fill="#3a2f25" opacity="0.16" filter="url(#sh)"/><rect rx="5" ry="5" x="-28" y="-28" width="56" height="56" class="key"/>
<text style="font-family:SFMono-Regular,Consolas,Liberation Mono,Menlo,monospace" x="0" y="0" class="key tap">2</text>
</g>
<g transform="translate(270, 98)" class="key keypos-16">
<rect x="-25.2" y="-25.5" width="54" height="54" rx="3" ry="3" fill="#3a2f25" opacity="0.16" filter="url(#sh)"/><rect rx="5" ry="5" x="-28" y="-28" width="56" height="56" class="key"/>
<text style="font-family:SFMono-Regular,Consolas,Liberation Mono,Menlo,monospace" x="0" y="0" class="key tap">3</text>
</g>
<g transform="translate(330, 105)" class="key none keypos-17">
<rect rx="5" ry="5" x="-28" y="-28" width="56" height="56" class="key none"/>
</g>
<g transform="translate(510, 105)" class="key symbol keypos-18">
<rect x="-25.2" y="-25.5" width="54" height="54" rx="3" ry="3" fill="#3a2f25" opacity="0.16" filter="url(#sh)"/><rect rx="5" ry="5" x="-28" y="-28" width="56" height="56" class="key symbol"/>
<text style="font-family:SFMono-Regular,Consolas,Liberation Mono,Menlo,monospace" x="0" y="0" class="key symbol tap">-</text>
<text style="font-family:SFMono-Regular,Consolas,Liberation Mono,Menlo,monospace" x="0" y="-26" class="key symbol shifted">_</text>
</g>
<g transform="translate(570, 98)" class="key symbol keypos-19">
<rect x="-25.2" y="-25.5" width="54" height="54" rx="3" ry="3" fill="#3a2f25" opacity="0.16" filter="url(#sh)"/><rect rx="5" ry="5" x="-28" y="-28" width="56" height="56" class="key symbol"/>
<text style="font-family:SFMono-Regular,Consolas,Liberation Mono,Menlo,monospace" x="0" y="0" class="key symbol tap">(</text>
<text style="font-family:SFMono-Regular,Consolas,Liberation Mono,Menlo,monospace" x="0" y="-26" class="key symbol shifted">&lt;</text>
</g>
<g transform="translate(630, 90)" class="key symbol keypos-20">
<rect x="-25.2" y="-25.5" width="54" height="54" rx="3" ry="3" fill="#3a2f25" opacity="0.16" filter="url(#sh)"/><rect rx="5" ry="5" x="-28" y="-28" width="56" height="56" class="key symbol"/>
<text style="font-family:SFMono-Regular,Consolas,Liberation Mono,Menlo,monospace" x="0" y="0" class="key symbol tap">$</text>
<text style="font-family:SFMono-Regular,Consolas,Liberation Mono,Menlo,monospace" x="0" y="-26" class="key symbol shifted">%</text>
</g>
<g transform="translate(690, 98)" class="key symbol keypos-21">
<rect x="-25.2" y="-25.5" width="54" height="54" rx="3" ry="3" fill="#3a2f25" opacity="0.16" filter="url(#sh)"/><rect rx="5" ry="5" x="-28" y="-28" width="56" height="56" class="key symbol"/>
<text style="font-family:SFMono-Regular,Consolas,Liberation Mono,Menlo,monospace" x="0" y="0" class="key symbol tap">)</text>
<text style="font-family:SFMono-Regular,Consolas,Liberation Mono,Menlo,monospace" x="0" y="-26" class="key symbol shifted">&gt;</text>
</g>
<g transform="translate(750, 105)" class="key symbol keypos-22">
<rect x="-25.2" y="-25.5" width="54" height="54" rx="3" ry="3" fill="#3a2f25" opacity="0.16" filter="url(#sh)"/><rect rx="5" ry="5" x="-28" y="-28" width="56" height="56" class="key symbol"/>
<text style="font-family:SFMono-Regular,Consolas,Liberation Mono,Menlo,monospace" x="0" y="0" class="key symbol tap">\</text>
<text style="font-family:SFMono-Regular,Consolas,Liberation Mono,Menlo,monospace" x="0" y="-26" class="key symbol shifted">^</text>
</g>
<g transform="translate(810, 105)" class="key symbol keypos-23">
<rect x="-25.2" y="-25.5" width="54" height="54" rx="3" ry="3" fill="#3a2f25" opacity="0.16" filter="url(#sh)"/><rect rx="5" ry="5" x="-28" y="-28" width="56" height="56" class="key symbol"/>
<text style="font-family:SFMono-Regular,Consolas,Liberation Mono,Menlo,monospace" x="0" y="0" class="key symbol tap">&amp;</text>
<text style="font-family:SFMono-Regular,Consolas,Liberation Mono,Menlo,monospace" x="0" y="-26" class="key symbol shifted">*</text>
</g>
<g transform="translate(30, 165)" class="key trans keypos-24">
<rect rx="5" ry="5" x="-28" y="-28" width="56" height="56" class="key trans"/>
<text style="font-family:SFMono-Regular,Consolas,Liberation Mono,Menlo,monospace" x="0" y="0" class="key trans tap">▽</text>
</g>
<g transform="translate(90, 165)" class="key symbol keypos-25">
<rect x="-25.2" y="-25.5" width="54" height="54" rx="3" ry="3" fill="#3a2f25" opacity="0.16" filter="url(#sh)"/><rect rx="5" ry="5" x="-28" y="-28" width="56" height="56" class="key symbol"/>
<text x="0" y="0" class="key symbol tap">-&gt;</text>
<text x="0" y="-26" class="key symbol shifted">=&gt;</text>
</g>
<g transform="translate(150, 158)" class="key keypos-26">
<rect x="-25.2" y="-25.5" width="54" height="54" rx="3" ry="3" fill="#3a2f25" opacity="0.16" filter="url(#sh)"/><rect rx="5" ry="5" x="-28" y="-28" width="56" height="56" class="key"/>
<text style="font-family:SFMono-Regular,Consolas,Liberation Mono,Menlo,monospace" x="0" y="0" class="key tap">4</text>
</g>
<g transform="translate(210, 150)" class="key keypos-27">
<rect x="-25.2" y="-25.5" width="54" height="54" rx="3" ry="3" fill="#3a2f25" opacity="0.16" filter="url(#sh)"/><rect rx="5" ry="5" x="-28" y="-28" width="56" height="56" class="key"/>
<text style="font-family:SFMono-Regular,Consolas,Liberation Mono,Menlo,monospace" x="0" y="0" class="key tap">5</text>
</g>
<g transform="translate(270, 158)" class="key keypos-28">
<rect x="-25.2" y="-25.5" width="54" height="54" rx="3" ry="3" fill="#3a2f25" opacity="0.16" filter="url(#sh)"/><rect rx="5" ry="5" x="-28" y="-28" width="56" height="56" class="key"/>
<text style="font-family:SFMono-Regular,Consolas,Liberation Mono,Menlo,monospace" x="0" y="0" class="key tap">6</text>
</g>
<g transform="translate(330, 165)" class="key layer keypos-29">
<rect x="-25.2" y="-25.5" width="54" height="54" rx="3" ry="3" fill="#3a2f25" opacity="0.16" filter="url(#sh)"/><rect rx="5" ry="5" x="-28" y="-28" width="56" height="56" class="key layer"/>
<use href="#mdi:lock-outline" xlink:href="#mdi:lock-outline" x="-7" y="-7" height="14" width="14.0" class="key layer tap glyph mdi:lock-outline"/>
<text x="0" y="26" class="key layer hold"><tspan style="font-size: 70%">Layer Lock</tspan></text>
</g>
<g transform="translate(510, 165)" class="key symbol keypos-30">
<rect x="-25.2" y="-25.5" width="54" height="54" rx="3" ry="3" fill="#3a2f25" opacity="0.16" filter="url(#sh)"/><rect rx="5" ry="5" x="-28" y="-28" width="56" height="56" class="key symbol"/>
<text style="font-family:SFMono-Regular,Consolas,Liberation Mono,Menlo,monospace" x="0" y="0" class="key symbol tap">/</text>
<text style="font-family:SFMono-Regular,Consolas,Liberation Mono,Menlo,monospace" x="0" y="-26" class="key symbol shifted">|</text>
</g>
<g transform="translate(570, 158)" class="key symbol keypos-31">
<rect x="-25.2" y="-25.5" width="54" height="54" rx="3" ry="3" fill="#3a2f25" opacity="0.16" filter="url(#sh)"/><rect rx="5" ry="5" x="-28" y="-28" width="56" height="56" class="key symbol"/>
<text style="font-family:SFMono-Regular,Consolas,Liberation Mono,Menlo,monospace" x="0" y="0" class="key symbol tap">&#x27;</text>
<text style="font-family:SFMono-Regular,Consolas,Liberation Mono,Menlo,monospace" x="0" y="-26" class="key symbol shifted">&quot;</text>
</g>
<g transform="translate(630, 150)" class="key symbol keypos-32">
<rect x="-25.2" y="-25.5" width="54" height="54" rx="3" ry="3" fill="#3a2f25" opacity="0.16" filter="url(#sh)"/><rect rx="5" ry="5" x="-28" y="-28" width="56" height="56" class="key symbol"/>
<text style="font-family:SFMono-Regular,Consolas,Liberation Mono,Menlo,monospace" x="0" y="0" class="key symbol tap">.</text>
<text style="font-family:SFMono-Regular,Consolas,Liberation Mono,Menlo,monospace" x="0" y="-26" class="key symbol shifted">!</text>
</g>
<g transform="translate(690, 158)" class="key symbol keypos-33">
<rect x="-25.2" y="-25.5" width="54" height="54" rx="3" ry="3" fill="#3a2f25" opacity="0.16" filter="url(#sh)"/><rect rx="5" ry="5" x="-28" y="-28" width="56" height="56" class="key symbol"/>
<text style="font-family:SFMono-Regular,Consolas,Liberation Mono,Menlo,monospace" x="0" y="0" class="key symbol tap">,</text>
<text style="font-family:SFMono-Regular,Consolas,Liberation Mono,Menlo,monospace" x="0" y="-26" class="key symbol shifted">?</text>
</g>
<g transform="translate(750, 165)" class="key symbol keypos-34">
<rect x="-25.2" y="-25.5" width="54" height="54" rx="3" ry="3" fill="#3a2f25" opacity="0.16" filter="url(#sh)"/><rect rx="5" ry="5" x="-28" y="-28" width="56" height="56" class="key symbol"/>
<text style="font-family:SFMono-Regular,Consolas,Liberation Mono,Menlo,monospace" x="0" y="0" class="key symbol tap">:</text>
<text style="font-family:SFMono-Regular,Consolas,Liberation Mono,Menlo,monospace" x="0" y="-26" class="key symbol shifted">;</text>
</g>
<g transform="translate(810, 165)" class="key trans keypos-35">
<rect rx="5" ry="5" x="-28" y="-28" width="56" height="56" class="key trans"/>
<text style="font-family:SFMono-Regular,Consolas,Liberation Mono,Menlo,monospace" x="0" y="0" class="key trans tap">▽</text>
</g>
<g transform="translate(240, 225)" class="key trans keypos-36">
<rect rx="5" ry="5" x="-28" y="-28" width="56" height="56" class="key trans"/>
<text style="font-family:SFMono-Regular,Consolas,Liberation Mono,Menlo,monospace" x="0" y="0" class="key trans tap">▽</text>
</g>
<g transform="translate(300, 240)" class="key trans keypos-37">
<rect rx="5" ry="5" x="-28" y="-28" width="56" height="56" class="key trans"/>
<text style="font-family:SFMono-Regular,Consolas,Liberation Mono,Menlo,monospace" x="0" y="0" class="key trans tap">▽</text>
</g>
<g transform="translate(360, 255)" class="key layer keypos-38">
<rect x="-25.2" y="-25.5" width="54" height="54" rx="3" ry="3" fill="#3a2f25" opacity="0.16" filter="url(#sh)"/><rect rx="5" ry="5" x="-28" y="-28" width="56" height="56" class="key layer"/>
<use href="#mdi:layers-triple-outline" xlink:href="#mdi:layers-triple-outline" x="-7" y="-7" height="14" width="14.0" class="key layer tap glyph mdi:layers-triple-outline"/>
<text style="font-family:SFMono-Regular,Consolas,Liberation Mono,Menlo,monospace" x="0" y="26" class="key layer hold">3</text>
</g>
<g transform="translate(480, 255)" class="key held keypos-39">
<rect x="-25.2" y="-25.5" width="54" height="54" rx="3" ry="3" fill="#3a2f25" opacity="0.16" filter="url(#sh)"/><rect rx="5" ry="5" x="-28" y="-28" width="56" height="56" class="key held"/>
</g>
<g transform="translate(540, 240)" class="key trans keypos-40">
<rect rx="5" ry="5" x="-28" y="-28" width="56" height="56" class="key trans"/>
<text style="font-family:SFMono-Regular,Consolas,Liberation Mono,Menlo,monospace" x="0" y="0" class="key trans tap">▽</text>
</g>
<g transform="translate(600, 225)" class="key trans keypos-41">
<rect rx="5" ry="5" x="-28" y="-28" width="56" height="56" class="key trans"/>
<text style="font-family:SFMono-Regular,Consolas,Liberation Mono,Menlo,monospace" x="0" y="0" class="key trans tap">▽</text>
</g>
</g>
</g>
<defs><pattern id="stripes" patternUnits="userSpaceOnUse" width="8" height="8" patternTransform="rotate(45)"><rect width="8" height="8" fill="#efefef"/><rect width="4" height="8" fill="#c8c8c8"/></pattern></defs></svg>
