<svg width="900" height="1420" viewBox="0 0 900 1420" class="keymap" xmlns="http://www.w3.org/2000/svg" xmlns:xlink="http://www.w3.org/1999/xlink">
<defs>/* start glyphs */
<svg id="mdi:apple-keyboard-command">
<svg xmlns="http://www.w3.org/2000/svg" id="mdi-apple-keyboard-command" viewBox="0 0 24 24"><path d="M6,2A4,4 0 0,1 10,6V8H14V6A4,4 0 0,1 18,2A4,4 0 0,1 22,6A4,4 0 0,1 18,10H16V14H18A4,4 0 0,1 22,18A4,4 0 0,1 18,22A4,4 0 0,1 14,18V16H10V18A4,4 0 0,1 6,22A4,4 0 0,1 2,18A4,4 0 0,1 6,14H8V10H6A4,4 0 0,1 2,6A4,4 0 0,1 6,2M16,18A2,2 0 0,0 18,20A2,2 0 0,0 20,18A2,2 0 0,0 18,16H16V18M14,10H10V14H14V10M6,16A2,2 0 0,0 4,18A2,2 0 0,0 6,20A2,2 0 0,0 8,18V16H6M8,6A2,2 0 0,0 6,4A2,2 0 0,0 4,6A2,2 0 0,0 6,8H8V6M18,8A2,2 0 0,0 20,6A2,2 0 0,0 18,4A2,2 0 0,0 16,6V8H18Z" /></svg>
</svg>
<svg id="mdi:apple-keyboard-control">
<svg xmlns="http://www.w3.org/2000/svg" id="mdi-apple-keyboard-control" viewBox="0 0 24 24"><path d="M19.78,11.78L18.36,13.19L12,6.83L5.64,13.19L4.22,11.78L12,4L19.78,11.78Z" /></svg>
</svg>
<svg id="mdi:apple-keyboard-shift">
<svg xmlns="http://www.w3.org/2000/svg" id="mdi-apple-keyboard-shift" viewBox="0 0 24 24"><path d="M15,18V12H17.17L12,6.83L6.83,12H9V18H15M12,4L22,14H17V20H7V14H2L12,4Z" /></svg>
</svg>
<svg id="mdi:arrow-down">
<svg xmlns="http://www.w3.org/2000/svg" id="mdi-arrow-down" viewBox="0 0 24 24"><path d="M11,4H13V16L18.5,10.5L19.92,11.92L12,19.84L4.08,11.92L5.5,10.5L11,16V4Z" /></svg>
</svg>
<svg id="mdi:arrow-left">
<svg xmlns="http://www.w3.org/2000/svg" id="mdi-arrow-left" viewBox="0 0 24 24"><path d="M20,11V13H8L13.5,18.5L12.08,19.92L4.16,12L12.08,4.08L13.5,5.5L8,11H20Z" /></svg>
</svg>
<svg id="mdi:arrow-right">
<svg xmlns="http://www.w3.org/2000/svg" id="mdi-arrow-right" viewBox="0 0 24 24"><path d="M4,11V13H16L10.5,18.5L11.92,19.92L19.84,12L11.92,4.08L10.5,5.5L16,11H4Z" /></svg>
</svg>
<svg id="mdi:arrow-up">
<svg xmlns="http://www.w3.org/2000/svg" id="mdi-arrow-up" viewBox="0 0 24 24"><path d="M13,20H11V8L5.5,13.5L4.08,12.08L12,4.16L19.92,12.08L18.5,13.5L13,8V20Z" /></svg>
</svg>
<svg id="mdi:backspace-outline">
<svg xmlns="http://www.w3.org/2000/svg" id="mdi-backspace-outline" viewBox="0 0 24 24"><path d="M19,15.59L17.59,17L14,13.41L10.41,17L9,15.59L12.59,12L9,8.41L10.41,7L14,10.59L17.59,7L19,8.41L15.41,12L19,15.59M22,3A2,2 0 0,1 24,5V19A2,2 0 0,1 22,21H7C6.31,21 5.77,20.64 5.41,20.11L0,12L5.41,3.88C5.77,3.35 6.31,3 7,3H22M22,5H7L2.28,12L7,19H22V5Z" /></svg>
</svg>
<svg id="mdi:keyboard-esc">
<svg xmlns="http://www.w3.org/2000/svg" id="mdi-keyboard-esc" viewBox="0 0 24 24"><path d="M1 7H7V9H3V11H7V13H3V15H7V17H1V7M11 7H15V9H11V11H13C14.11 11 15 11.9 15 13V15C15 16.11 14.11 17 13 17H9V15H13V13H11C9.9 13 9 12.11 9 11V9C9 7.9 9.9 7 11 7M19 7H21C22.11 7 23 7.9 23 9V10H21V9H19V15H21V14H23V15C23 16.11 22.11 17 21 17H19C17.9 17 17 16.11 17 15V9C17 7.9 17.9 7 19 7Z" /></svg>
</svg>
<svg id="mdi:keyboard-return">
<svg xmlns="http://www.w3.org/2000/svg" id="mdi-keyboard-return" viewBox="0 0 24 24"><path d="M19,7V11H5.83L9.41,7.41L8,6L2,12L8,18L9.41,16.58L5.83,13H21V7H19Z" /></svg>
</svg>
<svg id="mdi:keyboard-space">
<svg xmlns="http://www.w3.org/2000/svg" id="mdi-keyboard-space" viewBox="0 0 24 24"><path d="M3 15H5V19H19V15H21V19C21 20.1 20.1 21 19 21H5C3.9 21 3 20.1 3 19V15Z" /></svg>
</svg>
<svg id="mdi:keyboard-tab">
<svg xmlns="http://www.w3.org/2000/svg" id="mdi-keyboard-tab" viewBox="0 0 24 24"><path d="M20,18H22V6H20M11.59,7.41L15.17,11H1V13H15.17L11.59,16.58L13,18L19,12L13,6L11.59,7.41Z" /></svg>
</svg>
<svg id="mdi:layers">
<svg xmlns="http://www.w3.org/2000/svg" id="mdi-layers" viewBox="0 0 24 24"><path d="M12,16L19.36,10.27L21,9L12,2L3,9L4.63,10.27M12,18.54L4.62,12.81L3,14.07L12,21.07L21,14.07L19.37,12.8L12,18.54Z" /></svg>
</svg>
<svg id="mdi:layers-outline">
<svg xmlns="http://www.w3.org/2000/svg" id="mdi-layers-outline" viewBox="0 0 24 24"><path d="M12,18.54L19.37,12.8L21,14.07L12,21.07L3,14.07L4.62,12.81L12,18.54M12,16L3,9L12,2L21,9L12,16M12,4.53L6.26,9L12,13.47L17.74,9L12,4.53Z" /></svg>
</svg>
<svg id="mdi:lock">
<svg xmlns="http://www.w3.org/2000/svg" id="mdi-lock" viewBox="0 0 24 24"><path d="M12,17A2,2 0 0,0 14,15C14,13.89 13.1,13 12,13A2,2 0 0,0 10,15A2,2 0 0,0 12,17M18,8A2,2 0 0,1 20,10V20A2,2 0 0,1 18,22H6A2,2 0 0,1 4,20V10C4,8.89 4.9,8 6,8H7V6A5,5 0 0,1 12,1A5,5 0 0,1 17,6V8H18M12,3A3,3 0 0,0 9,6V8H15V6A3,3 0 0,0 12,3Z" /></svg>
</svg>
</defs>/* end glyphs */
<style>/* inherit to force styles through use tags */
svg path {
    fill: inherit;
}

/* font and background color specifications */
svg.keymap {
    font-family: SFMono-Regular,Consolas,Liberation Mono,Menlo,monospace;
    font-size: 14px;
    font-kerning: normal;
    text-rendering: optimizeLegibility;
    fill: #24292e;
}

/* default key styling */
rect.key {
    fill: #f6f8fa;
}

rect.key, rect.combo {
    stroke: #c9cccf;
    stroke-width: 1;
}

/* default key side styling, only used is draw_key_sides is set */
rect.side {
    filter: brightness(90%);
}

/* color accent for combo boxes */
rect.combo, rect.combo-separate {
    fill: #cdf;
}

/* color accent for held keys */
rect.held, rect.combo.held {
    fill: #fdd;
}

/* color accent for ghost (optional) keys */
rect.ghost, rect.combo.ghost {
    stroke-dasharray: 4, 4;
    stroke-width: 2;
}

text {
    text-anchor: middle;
    dominant-baseline: middle;
}

/* styling for layer labels */
text.label {
    font-weight: bold;
    text-anchor: start;
    stroke: white;
    stroke-width: 4;
    paint-order: stroke;
}

/* styling for optional footer */
text.footer {
    text-anchor: end;
    dominant-baseline: auto;
    stroke: white;
    stroke-width: 4;
    paint-order: stroke;
}

/* styling for combo tap, and key non-tap label text */
text.combo, text.hold, text.shifted, text.left, text.right {
    font-size: 11px;
}

text.hold {
    text-anchor: middle;
    dominant-baseline: auto;
}

text.shifted {
    text-anchor: middle;
    dominant-baseline: hanging;
}

text.left {
    text-anchor: start;
}

text.right {
    text-anchor: end;
}

text.layer-activator {
    text-decoration: underline;
}

/* styling for hold/shifted label text in combo box */
text.combo.hold, text.combo.shifted, text.combo.left, text.combo.right {
    font-size: 8px;
}

/* lighter symbol for transparent keys */
text.trans {
    fill: #7b7e81;
}

/* styling for combo dendrons */
path.combo {
    stroke-width: 1;
    stroke: gray;
    fill: none;
}

/* Start Tabler Icons Cleanup */
/* cannot use height/width with glyphs */
.icon-tabler > path {
    fill: inherit;
    stroke: inherit;
    stroke-width: 2;
}
/* hide tabler's default box */
.icon-tabler > path[stroke="none"][fill="none"] {
    visibility: hidden;
}
/* End Tabler Icons Cleanup */

/* Category 1: Modifiers - Blue */
.key.modifier rect { fill: #d6e5f5; stroke: #4a7ab8; }
.key.modifier :not(rect) { fill: #4a7ab8; }

/* Category 2: Navigation - Green */
.key.nav rect { fill: #d9f0d9; stroke: #5ca75c; }
.key.nav :not(rect) { fill: #5ca75c; }

/* Category 3: Editing/Actions - Orange */
.key.editing rect { fill: #ffe4d1; stroke: #e88a3a; }
.key.editing :not(rect) { fill: #e88a3a; }

/* Category 4: Layer switching - Purple */
.key.layer rect { fill: #ead9eb; stroke: #9a5fa1; }
.key.layer :not(rect) { fill: #9a5fa1; }

/* Category 5: System commands - Yellow */
.key.system rect { fill: #fff4d1; stroke: #e8b52a; }
.key.system :not(rect) { fill: #e8b52a; }

/* Category 6: Symbols - Cyan/Teal */
.key.symbol rect { fill: #d4f0e8; stroke: #4aa78a; }
.key.symbol :not(rect) { fill: #4aa78a; }

/* Category 7: Accented characters - Pink/Coral */
.key.accent rect { fill: #ffe0d6; stroke: #e86d4a; }
.key.accent :not(rect) { fill: #e86d4a; }
</style>
<g transform="translate(30, 0)" class="layer-Base (default)">
<text x="0" y="28" class="label" id="Base-default">Base (default)</text>
<g transform="translate(0, 56)">
<g transform="translate(30, 45)" class="key keypos-0">
<rect rx="6" ry="6" x="-28" y="-28" width="56" height="56" class="key"/>
</g>
<g transform="translate(90, 45)" class="key keypos-1">
<rect rx="6" ry="6" x="-28" y="-28" width="56" height="56" class="key"/>
</g>
<g transform="translate(150, 38)" class="key keypos-2">
<rect rx="6" ry="6" x="-28" y="-28" width="56" height="56" class="key"/>
<text x="0" y="0" class="key tap">W</text>
</g>
<g transform="translate(210, 30)" class="key keypos-3">
<rect rx="6" ry="6" x="-28" y="-28" width="56" height="56" class="key"/>
<text x="0" y="0" class="key tap">E</text>
</g>
<g transform="translate(270, 38)" class="key keypos-4">
<rect rx="6" ry="6" x="-28" y="-28" width="56" height="56" class="key"/>
<text x="0" y="0" class="key tap">R</text>
</g>
<g transform="translate(330, 45)" class="key keypos-5">
<rect rx="6" ry="6" x="-28" y="-28" width="56" height="56" class="key"/>
<text x="0" y="0" class="key tap">T</text>
</g>
<g transform="translate(510, 45)" class="key keypos-6">
<rect rx="6" ry="6" x="-28" y="-28" width="56" height="56" class="key"/>
<text x="0" y="0" class="key tap">Y</text>
</g>
<g transform="translate(570, 38)" class="key keypos-7">
<rect rx="6" ry="6" x="-28" y="-28" width="56" height="56" class="key"/>
<text x="0" y="0" class="key tap">U</text>
</g>
<g transform="translate(630, 30)" class="key keypos-8">
<rect rx="6" ry="6" x="-28" y="-28" width="56" height="56" class="key"/>
<text x="0" y="0" class="key tap">I</text>
</g>
<g transform="translate(690, 38)" class="key keypos-9">
<rect rx="6" ry="6" x="-28" y="-28" width="56" height="56" class="key"/>
<text x="0" y="0" class="key tap">O</text>
</g>
<g transform="translate(750, 45)" class="key keypos-10">
<rect rx="6" ry="6" x="-28" y="-28" width="56" height="56" class="key"/>
</g>
<g transform="translate(810, 45)" class="key keypos-11">
<rect rx="6" ry="6" x="-28" y="-28" width="56" height="56" class="key"/>
</g>
<g transform="translate(30, 105)" class="key nav keypos-12">
<rect rx="6" ry="6" x="-28" y="-28" width="56" height="56" class="key nav"/>
<use href="#mdi:keyboard-tab" xlink:href="#mdi:keyboard-tab" x="-7" y="-7" height="14" width="14.0" class="key nav tap glyph mdi:keyboard-tab"/>
</g>
<g transform="translate(90, 105)" class="key keypos-13">
<rect rx="6" ry="6" x="-28" y="-28" width="56" height="56" class="key"/>
<text x="0" y="0" class="key tap">A</text>
</g>
<g transform="translate(150, 98)" class="key keypos-14">
<rect rx="6" ry="6" x="-28" y="-28" width="56" height="56" class="key"/>
<text x="0" y="0" class="key tap">S</text>
</g>
<g transform="translate(210, 90)" class="key keypos-15">
<rect rx="6" ry="6" x="-28" y="-28" width="56" height="56" class="key"/>
<text x="0" y="0" class="key tap">D</text>
</g>
<g transform="translate(270, 98)" class="key keypos-16">
<rect rx="6" ry="6" x="-28" y="-28" width="56" height="56" class="key"/>
<text x="0" y="0" class="key tap">F</text>
</g>
<g transform="translate(330, 105)" class="key keypos-17">
<rect rx="6" ry="6" x="-28" y="-28" width="56" height="56" class="key"/>
<text x="0" y="0" class="key tap">G</text>
</g>
<g transform="translate(510, 105)" class="key keypos-18">
<rect rx="6" ry="6" x="-28" y="-28" width="56" height="56" class="key"/>
<text x="0" y="0" class="key tap">H</text>
</g>
<g transform="translate(570, 98)" class="key keypos-19">
<rect rx="6" ry="6" x="-28" y="-28" width="56" height="56" class="key"/>
<text x="0" y="0" class="key tap">J</text>
</g>
<g transform="translate(630, 90)" class="key keypos-20">
<rect rx="6" ry="6" x="-28" y="-28" width="56" height="56" class="key"/>
<text x="0" y="0" class="key tap">K</text>
</g>
<g transform="translate(690, 98)" class="key keypos-21">
<rect rx="6" ry="6" x="-28" y="-28" width="56" height="56" class="key"/>
<text x="0" y="0" class="key tap">L</text>
</g>
<g transform="translate(750, 105)" class="key symbol keypos-22">
<rect rx="6" ry="6" x="-28" y="-28" width="56" height="56" class="key symbol"/>
<text x="0" y="0" class="key symbol tap">;</text>
</g>
<g transform="translate(810, 105)" class="key symbol keypos-23">
<rect rx="6" ry="6" x="-28" y="-28" width="56" height="56" class="key symbol"/>
<text x="0" y="0" class="key symbol tap">&#x27;</text>
</g>
<g transform="translate(30, 165)" class="key modifier keypos-24">
<rect rx="6" ry="6" x="-28" y="-28" width="56" height="56" class="key modifier"/>
<use href="#mdi:apple-keyboard-control" xlink:href="#mdi:apple-keyboard-control" x="-7" y="-7" height="14" width="14.0" class="key modifier tap glyph mdi:apple-keyboard-control"/>
</g>
<g transform="translate(90, 165)" class="key keypos-25">
<rect rx="6" ry="6" x="-28" y="-28" width="56" height="56" class="key"/>
<text x="0" y="0" class="key tap">Z</text>
</g>
<g transform="translate(150, 158)" class="key keypos-26">
<rect rx="6" ry="6" x="-28" y="-28" width="56" height="56" class="key"/>
<text x="0" y="0" class="key tap">X</text>
</g>
<g transform="translate(210, 150)" class="key keypos-27">
<rect rx="6" ry="6" x="-28" y="-28" width="56" height="56" class="key"/>
<text x="0" y="0" class="key tap">C</text>
</g>
<g transform="translate(270, 158)" class="key keypos-28">
<rect rx="6" ry="6" x="-28" y="-28" width="56" height="56" class="key"/>
<text x="0" y="0" class="key tap">V</text>
</g>
<g transform="translate(330, 165)" class="key keypos-29">
<rect rx="6" ry="6" x="-28" y="-28" width="56" height="56" class="key"/>
</g>
<g transform="translate(510, 165)" class="key keypos-30">
<rect rx="6" ry="6" x="-28" y="-28" width="56" height="56" class="key"/>
</g>
<g transform="translate(570, 158)" class="key keypos-31">
<rect rx="6" ry="6" x="-28" y="-28" width="56" height="56" class="key"/>
<text x="0" y="0" class="key tap">M</text>
</g>
<g transform="translate(630, 150)" class="key symbol keypos-32">
<rect rx="6" ry="6" x="-28" y="-28" width="56" height="56" class="key symbol"/>
<text x="0" y="0" class="key symbol tap">,</text>
</g>
<g transform="translate(690, 158)" class="key symbol keypos-33">
<rect rx="6" ry="6" x="-28" y="-28" width="56" height="56" class="key symbol"/>
<text x="0" y="0" class="key symbol tap">.</text>
</g>
<g transform="translate(750, 165)" class="key symbol keypos-34">
<rect rx="6" ry="6" x="-28" y="-28" width="56" height="56" class="key symbol"/>
<text x="0" y="0" class="key symbol tap">/</text>
</g>
<g transform="translate(810, 165)" class="key modifier keypos-35">
<rect rx="6" ry="6" x="-28" y="-28" width="56" height="56" class="key modifier"/>
<text x="0" y="0" class="key modifier tap">LAlt</text>
</g>
<g transform="translate(240, 225)" class="key keypos-36">
<rect rx="6" ry="6" x="-28" y="-28" width="56" height="56" class="key"/>
</g>
<g transform="translate(300, 240)" class="key modifier keypos-37">
<rect rx="6" ry="6" x="-28" y="-28" width="56" height="56" class="key modifier"/>
<use href="#mdi:apple-keyboard-shift" xlink:href="#mdi:apple-keyboard-shift" x="-7" y="-7" height="14" width="14.0" class="key modifier tap glyph mdi:apple-keyboard-shift"/>
<text x="0" y="26" class="key modifier hold">Leader</text>
</g>
<g transform="translate(360, 255)" class="key layer keypos-38">
<rect rx="6" ry="6" x="-28" y="-28" width="56" height="56" class="key layer"/>
<use href="#mdi:layers-outline" xlink:href="#mdi:layers-outline" x="-7" y="-7" height="14" width="14.0" class="key layer tap glyph mdi:layers-outline"/>
<text x="0" y="26" class="key layer hold">SYMBOLS</text>
</g>
<g transform="translate(480, 255)" class="key layer keypos-39">
<rect rx="6" ry="6" x="-28" y="-28" width="56" height="56" class="key layer"/>
<use href="#mdi:layers-outline" xlink:href="#mdi:layers-outline" x="-7" y="-7" height="14" width="14.0" class="key layer tap glyph mdi:layers-outline"/>
<text x="0" y="26" class="key layer hold">DEL</text>
</g>
<g transform="translate(540, 240)" class="key editing keypos-40">
<rect rx="6" ry="6" x="-28" y="-28" width="56" height="56" class="key editing"/>
<use href="#mdi:keyboard-space" xlink:href="#mdi:keyboard-space" x="-7" y="-7" height="14" width="14.0" class="key editing tap glyph mdi:keyboard-space"/>
</g>
<g transform="translate(600, 225)" class="key keypos-41">
<rect rx="6" ry="6" x="-28" y="-28" width="56" height="56" class="key"/>
</g>
<g class="combo combopos-0">
<rect rx="6" ry="6" x="166" y="23" width="28" height="22" class="combo"/>
<text x="180" y="34" class="combo tap">Q</text>
</g>
<g class="combo combopos-1">
<rect rx="6" ry="6" x="646" y="23" width="28" height="22" class="combo"/>
<text x="660" y="34" class="combo tap">P</text>
</g>
<g class="combo combopos-2">
<rect rx="6" ry="6" x="226" y="143" width="28" height="22" class="combo"/>
<text x="240" y="154" class="combo tap">B</text>
</g>
<g class="combo combopos-3">
<rect rx="6" ry="6" x="586" y="143" width="28" height="22" class="combo"/>
<text x="600" y="154" class="combo tap">N</text>
</g>
<g class="combo combopos-4">
<path d="M420,105 l-370,0" class="combo"/>
<path d="M420,105 l370,0" class="combo"/>
<rect rx="6" ry="6" x="406" y="94" width="28" height="22" class="combo"/>
<text x="420" y="105" class="combo tap">QK_BOOT</text>
</g>
</g>
</g>
<g transform="translate(30, 341)" class="layer-NAV (sticky)">
<text x="0" y="28" class="label" id="NAV-sticky">NAV (sticky)</text>
<g transform="translate(0, 56)">
<g transform="translate(30, 45)" class="key keypos-0">
<rect rx="6" ry="6" x="-28" y="-28" width="56" height="56" class="key"/>
</g>
<g transform="translate(90, 45)" class="key keypos-1">
<rect rx="6" ry="6" x="-28" y="-28" width="56" height="56" class="key"/>
</g>
<g transform="translate(150, 38)" class="key editing keypos-2">
<rect rx="6" ry="6" x="-28" y="-28" width="56" height="56" class="key editing"/>
<use href="#mdi:keyboard-esc" xlink:href="#mdi:keyboard-esc" x="-7" y="-7" height="14" width="14.0" class="key editing tap glyph mdi:keyboard-esc"/>
</g>
<g transform="translate(210, 30)" class="key system keypos-3">
<rect rx="6" ry="6" x="-28" y="-28" width="56" height="56" class="key system"/>
<text x="0" y="0" class="key system tap">Undo</text>
<text x="0" y="26" class="key system hold">C-Z</text>
</g>
<g transform="translate(270, 38)" class="key keypos-4">
<rect rx="6" ry="6" x="-28" y="-28" width="56" height="56" class="key"/>
</g>
<g transform="translate(330, 45)" class="key keypos-5">
<rect rx="6" ry="6" x="-28" y="-28" width="56" height="56" class="key"/>
</g>
<g transform="translate(510, 45)" class="key system keypos-6">
<rect rx="6" ry="6" x="-28" y="-28" width="56" height="56" class="key system"/>
<text x="0" y="0" class="key system tap">
<tspan x="0" dy="-1.2em">Select</tspan><tspan x="0" dy="1.2em">All</tspan>
</text>
<text x="0" y="26" class="key system hold">C-A</text>
</g>
<g transform="translate(570, 38)" class="key system keypos-7">
<rect rx="6" ry="6" x="-28" y="-28" width="56" height="56" class="key system"/>
<text x="0" y="0" class="key system tap">Paste</text>
<text x="0" y="26" class="key system hold">C-V</text>
</g>
<g transform="translate(630, 30)" class="key system keypos-8">
<rect rx="6" ry="6" x="-28" y="-28" width="56" height="56" class="key system"/>
<text x="0" y="0" class="key system tap">Copy</text>
<text x="0" y="26" class="key system hold">C-C</text>
</g>
<g transform="translate(690, 38)" class="key system keypos-9">
<rect rx="6" ry="6" x="-28" y="-28" width="56" height="56" class="key system"/>
<text x="0" y="0" class="key system tap">Cut</text>
<text x="0" y="26" class="key system hold">C-X</text>
</g>
<g transform="translate(750, 45)" class="key keypos-10">
<rect rx="6" ry="6" x="-28" y="-28" width="56" height="56" class="key"/>
</g>
<g transform="translate(810, 45)" class="key keypos-11">
<rect rx="6" ry="6" x="-28" y="-28" width="56" height="56" class="key"/>
</g>
<g transform="translate(30, 105)" class="key keypos-12">
<rect rx="6" ry="6" x="-28" y="-28" width="56" height="56" class="key"/>
</g>
<g transform="translate(90, 105)" class="key keypos-13">
<rect rx="6" ry="6" x="-28" y="-28" width="56" height="56" class="key"/>
</g>
<g transform="translate(150, 98)" class="key modifier keypos-14">
<rect rx="6" ry="6" x="-28" y="-28" width="56" height="56" class="key modifier"/>
<text x="0" y="0" class="key modifier tap">LAlt</text>
</g>
<g transform="translate(210, 90)" class="key modifier keypos-15">
<rect rx="6" ry="6" x="-28" y="-28" width="56" height="56" class="key modifier"/>
<use href="#mdi:apple-keyboard-control" xlink:href="#mdi:apple-keyboard-control" x="-7" y="-7" height="14" width="14.0" class="key modifier tap glyph mdi:apple-keyboard-control"/>
</g>
<g transform="translate(270, 98)" class="key modifier keypos-16">
<rect rx="6" ry="6" x="-28" y="-28" width="56" height="56" class="key modifier"/>
<use href="#mdi:apple-keyboard-shift" xlink:href="#mdi:apple-keyboard-shift" x="-7" y="-7" height="14" width="14.0" class="key modifier tap glyph mdi:apple-keyboard-shift"/>
</g>
<g transform="translate(330, 105)" class="key keypos-17">
<rect rx="6" ry="6" x="-28" y="-28" width="56" height="56" class="key"/>
</g>
<g transform="translate(510, 105)" class="key nav keypos-18">
<rect rx="6" ry="6" x="-28" y="-28" width="56" height="56" class="key nav"/>
<use href="#mdi:arrow-left" xlink:href="#mdi:arrow-left" x="-7" y="-7" height="14" width="14.0" class="key nav tap glyph mdi:arrow-left"/>
</g>
<g transform="translate(570, 98)" class="key nav keypos-19">
<rect rx="6" ry="6" x="-28" y="-28" width="56" height="56" class="key nav"/>
<use href="#mdi:arrow-down" xlink:href="#mdi:arrow-down" x="-7" y="-7" height="14" width="14.0" class="key nav tap glyph mdi:arrow-down"/>
</g>
<g transform="translate(630, 90)" class="key nav keypos-20">
<rect rx="6" ry="6" x="-28" y="-28" width="56" height="56" class="key nav"/>
<use href="#mdi:arrow-up" xlink:href="#mdi:arrow-up" x="-7" y="-7" height="14" width="14.0" class="key nav tap glyph mdi:arrow-up"/>
</g>
<g transform="translate(690, 98)" class="key nav keypos-21">
<rect rx="6" ry="6" x="-28" y="-28" width="56" height="56" class="key nav"/>
<use href="#mdi:arrow-right" xlink:href="#mdi:arrow-right" x="-7" y="-7" height="14" width="14.0" class="key nav tap glyph mdi:arrow-right"/>
</g>
<g transform="translate(750, 105)" class="key keypos-22">
<rect rx="6" ry="6" x="-28" y="-28" width="56" height="56" class="key"/>
</g>
<g transform="translate(810, 105)" class="key keypos-23">
<rect rx="6" ry="6" x="-28" y="-28" width="56" height="56" class="key"/>
</g>
<g transform="translate(30, 165)" class="key keypos-24">
<rect rx="6" ry="6" x="-28" y="-28" width="56" height="56" class="key"/>
</g>
<g transform="translate(90, 165)" class="key keypos-25">
<rect rx="6" ry="6" x="-28" y="-28" width="56" height="56" class="key"/>
</g>
<g transform="translate(150, 158)" class="key modifier keypos-26">
<rect rx="6" ry="6" x="-28" y="-28" width="56" height="56" class="key modifier"/>
<use href="#mdi:apple-keyboard-command" xlink:href="#mdi:apple-keyboard-command" x="-7" y="-7" height="14" width="14.0" class="key modifier tap glyph mdi:apple-keyboard-command"/>
</g>
<g transform="translate(210, 150)" class="key modifier keypos-27">
<rect rx="6" ry="6" x="-28" y="-28" width="56" height="56" class="key modifier"/>
<use href="#mdi:apple-keyboard-shift" xlink:href="#mdi:apple-keyboard-shift" x="-7" y="-7" height="14" width="14.0" class="key modifier tap glyph mdi:apple-keyboard-shift"/>
</g>
<g transform="translate(270, 158)" class="key nav keypos-28">
<rect rx="6" ry="6" x="-28" y="-28" width="56" height="56" class="key nav"/>
<use href="#mdi:keyboard-tab" xlink:href="#mdi:keyboard-tab" x="-7" y="-7" height="14" width="14.0" class="key nav tap glyph mdi:keyboard-tab"/>
</g>
<g transform="translate(330, 165)" class="key keypos-29">
<rect rx="6" ry="6" x="-28" y="-28" width="56" height="56" class="key"/>
</g>
<g transform="translate(510, 165)" class="key nav keypos-30">
<rect rx="6" ry="6" x="-28" y="-28" width="56" height="56" class="key nav"/>
<text x="0" y="0" class="key nav tap">Home</text>
</g>
<g transform="translate(570, 158)" class="key nav keypos-31">
<rect rx="6" ry="6" x="-28" y="-28" width="56" height="56" class="key nav"/>
<text x="0" y="0" class="key nav tap">PgDn</text>
</g>
<g transform="translate(630, 150)" class="key nav keypos-32">
<rect rx="6" ry="6" x="-28" y="-28" width="56" height="56" class="key nav"/>
<text x="0" y="0" class="key nav tap">PgUp</text>
</g>
<g transform="translate(690, 158)" class="key nav keypos-33">
<rect rx="6" ry="6" x="-28" y="-28" width="56" height="56" class="key nav"/>
<text x="0" y="0" class="key nav tap">End</text>
</g>
<g transform="translate(750, 165)" class="key keypos-34">
<rect rx="6" ry="6" x="-28" y="-28" width="56" height="56" class="key"/>
</g>
<g transform="translate(810, 165)" class="key keypos-35">
<rect rx="6" ry="6" x="-28" y="-28" width="56" height="56" class="key"/>
</g>
<g transform="translate(240, 225)" class="key keypos-36">
<rect rx="6" ry="6" x="-28" y="-28" width="56" height="56" class="key"/>
</g>
<g transform="translate(300, 240)" class="key modifier keypos-37">
<rect rx="6" ry="6" x="-28" y="-28" width="56" height="56" class="key modifier"/>
<use href="#mdi:apple-keyboard-shift" xlink:href="#mdi:apple-keyboard-shift" x="-7" y="-7" height="14" width="14.0" class="key modifier tap glyph mdi:apple-keyboard-shift"/>
</g>
<g transform="translate(360, 255)" class="key keypos-38">
<rect rx="6" ry="6" x="-28" y="-28" width="56" height="56" class="key"/>
</g>
<g transform="translate(480, 255)" class="key layer keypos-39">
<rect rx="6" ry="6" x="-28" y="-28" width="56" height="56" class="key layer"/>
<use href="#mdi:layers" xlink:href="#mdi:layers" x="-7" y="-7" height="14" width="14.0" class="key layer tap glyph mdi:layers"/>
<text x="0" y="26" class="key layer hold">Base</text>
</g>
<g transform="translate(540, 240)" class="key modifier keypos-40">
<rect rx="6" ry="6" x="-28" y="-28" width="56" height="56" class="key modifier"/>
<use href="#mdi:apple-keyboard-shift" xlink:href="#mdi:apple-keyboard-shift" x="-7" y="-7" height="14" width="14.0" class="key modifier tap glyph mdi:apple-keyboard-shift"/>
</g>
<g transform="translate(600, 225)" class="key keypos-41">
<rect rx="6" ry="6" x="-28" y="-28" width="56" height="56" class="key"/>
</g>
</g>
</g>
<g transform="translate(30, 682)" class="layer-SYMBOLS (one-shot)">
<text x="0" y="28" class="label" id="SYMBOLS-one-shot">SYMBOLS (one-shot)</text>
<g transform="translate(0, 56)">
<g transform="translate(30, 45)" class="key keypos-0">
<rect rx="6" ry="6" x="-28" y="-28" width="56" height="56" class="key"/>
</g>
<g transform="translate(90, 45)" class="key keypos-1">
<rect rx="6" ry="6" x="-28" y="-28" width="56" height="56" class="key"/>
</g>
<g transform="translate(150, 38)" class="key keypos-2">
<rect rx="6" ry="6" x="-28" y="-28" width="56" height="56" class="key"/>
</g>
<g transform="translate(210, 30)" class="key keypos-3">
<rect rx="6" ry="6" x="-28" y="-28" width="56" height="56" class="key"/>
</g>
<g transform="translate(270, 38)" class="key keypos-4">
<rect rx="6" ry="6" x="-28" y="-28" width="56" height="56" class="key"/>
</g>
<g transform="translate(330, 45)" class="key keypos-5">
<rect rx="6" ry="6" x="-28" y="-28" width="56" height="56" class="key"/>
</g>
<g transform="translate(510, 45)" class="key keypos-6">
<rect rx="6" ry="6" x="-28" y="-28" width="56" height="56" class="key"/>
</g>
<g transform="translate(570, 38)" class="key keypos-7">
<rect rx="6" ry="6" x="-28" y="-28" width="56" height="56" class="key"/>
</g>
<g transform="translate(630, 30)" class="key keypos-8">
<rect rx="6" ry="6" x="-28" y="-28" width="56" height="56" class="key"/>
</g>
<g transform="translate(690, 38)" class="key keypos-9">
<rect rx="6" ry="6" x="-28" y="-28" width="56" height="56" class="key"/>
</g>
<g transform="translate(750, 45)" class="key keypos-10">
<rect rx="6" ry="6" x="-28" y="-28" width="56" height="56" class="key"/>
</g>
<g transform="translate(810, 45)" class="key keypos-11">
<rect rx="6" ry="6" x="-28" y="-28" width="56" height="56" class="key"/>
</g>
<g transform="translate(30, 105)" class="key symbol keypos-12">
<rect rx="6" ry="6" x="-28" y="-28" width="56" height="56" class="key symbol"/>
<text x="0" y="0" class="key symbol tap">`</text>
</g>
<g transform="translate(90, 105)" class="key keypos-13">
<rect rx="6" ry="6" x="-28" y="-28" width="56" height="56" class="key"/>
<text x="0" y="0" class="key tap">1</text>
</g>
<g transform="translate(150, 98)" class="key keypos-14">
<rect rx="6" ry="6" x="-28" y="-28" width="56" height="56" class="key"/>
<text x="0" y="0" class="key tap">2</text>
</g>
<g transform="translate(210, 90)" class="key keypos-15">
<rect rx="6" ry="6" x="-28" y="-28" width="56" height="56" class="key"/>
<text x="0" y="0" class="key tap">3</text>
</g>
<g transform="translate(270, 98)" class="key keypos-16">
<rect rx="6" ry="6" x="-28" y="-28" width="56" height="56" class="key"/>
<text x="0" y="0" class="key tap">4</text>
</g>
<g transform="translate(330, 105)" class="key keypos-17">
<rect rx="6" ry="6" x="-28" y="-28" width="56" height="56" class="key"/>
<text x="0" y="0" class="key tap">5</text>
</g>
<g transform="translate(510, 105)" class="key keypos-18">
<rect rx="6" ry="6" x="-28" y="-28" width="56" height="56" class="key"/>
<text x="0" y="0" class="key tap">6</text>
</g>
<g transform="translate(570, 98)" class="key keypos-19">
<rect rx="6" ry="6" x="-28" y="-28" width="56" height="56" class="key"/>
<text x="0" y="0" class="key tap">7</text>
</g>
<g transform="translate(630, 90)" class="key keypos-20">
<rect rx="6" ry="6" x="-28" y="-28" width="56" height="56" class="key"/>
<text x="0" y="0" class="key tap">8</text>
</g>
<g transform="translate(690, 98)" class="key keypos-21">
<rect rx="6" ry="6" x="-28" y="-28" width="56" height="56" class="key"/>
<text x="0" y="0" class="key tap">9</text>
</g>
<g transform="translate(750, 105)" class="key keypos-22">
<rect rx="6" ry="6" x="-28" y="-28" width="56" height="56" class="key"/>
<text x="0" y="0" class="key tap">0</text>
</g>
<g transform="translate(810, 105)" class="key keypos-23">
<rect rx="6" ry="6" x="-28" y="-28" width="56" height="56" class="key"/>
</g>
<g transform="translate(30, 165)" class="key keypos-24">
<rect rx="6" ry="6" x="-28" y="-28" width="56" height="56" class="key"/>
</g>
<g transform="translate(90, 165)" class="key symbol keypos-25">
<rect rx="6" ry="6" x="-28" y="-28" width="56" height="56" class="key symbol"/>
<text x="0" y="0" class="key symbol tap">-</text>
</g>
<g transform="translate(150, 158)" class="key symbol keypos-26">
<rect rx="6" ry="6" x="-28" y="-28" width="56" height="56" class="key symbol"/>
<text x="0" y="0" class="key symbol tap">=</text>
</g>
<g transform="translate(210, 150)" class="key symbol keypos-27">
<rect rx="6" ry="6" x="-28" y="-28" width="56" height="56" class="key symbol"/>
<text x="0" y="0" class="key symbol tap">\</text>
</g>
<g transform="translate(270, 158)" class="key symbol keypos-28">
<rect rx="6" ry="6" x="-28" y="-28" width="56" height="56" class="key symbol"/>
<text x="0" y="0" class="key symbol tap">&#x27;</text>
</g>
<g transform="translate(330, 165)" class="key symbol keypos-29">
<rect rx="6" ry="6" x="-28" y="-28" width="56" height="56" class="key symbol"/>
<text x="0" y="0" class="key symbol tap">[</text>
</g>
<g transform="translate(510, 165)" class="key symbol keypos-30">
<rect rx="6" ry="6" x="-28" y="-28" width="56" height="56" class="key symbol"/>
<text x="0" y="0" class="key symbol tap">]</text>
</g>
<g transform="translate(570, 158)" class="key symbol keypos-31">
<rect rx="6" ry="6" x="-28" y="-28" width="56" height="56" class="key symbol"/>
<text x="0" y="0" class="key symbol tap">;</text>
</g>
<g transform="translate(630, 150)" class="key symbol keypos-32">
<rect rx="6" ry="6" x="-28" y="-28" width="56" height="56" class="key symbol"/>
<text x="0" y="0" class="key symbol tap">,</text>
</g>
<g transform="translate(690, 158)" class="key symbol keypos-33">
<rect rx="6" ry="6" x="-28" y="-28" width="56" height="56" class="key symbol"/>
<text x="0" y="0" class="key symbol tap">.</text>
</g>
<g transform="translate(750, 165)" class="key symbol keypos-34">
<rect rx="6" ry="6" x="-28" y="-28" width="56" height="56" class="key symbol"/>
<text x="0" y="0" class="key symbol tap">/</text>
</g>
<g transform="translate(810, 165)" class="key keypos-35">
<rect rx="6" ry="6" x="-28" y="-28" width="56" height="56" class="key"/>
</g>
<g transform="translate(240, 225)" class="key keypos-36">
<rect rx="6" ry="6" x="-28" y="-28" width="56" height="56" class="key"/>
</g>
<g transform="translate(300, 240)" class="key modifier keypos-37">
<rect rx="6" ry="6" x="-28" y="-28" width="56" height="56" class="key modifier"/>
<use href="#mdi:apple-keyboard-shift" xlink:href="#mdi:apple-keyboard-shift" x="-7" y="-7" height="14" width="14.0" class="key modifier tap glyph mdi:apple-keyboard-shift"/>
</g>
<g transform="translate(360, 255)" class="key layer keypos-38">
<rect rx="6" ry="6" x="-28" y="-28" width="56" height="56" class="key layer"/>
<use href="#mdi:lock" xlink:href="#mdi:lock" x="-7" y="-7" height="14" width="14.0" class="key layer tap glyph mdi:lock"/>
</g>
<g transform="translate(480, 255)" class="key layer keypos-39">
<rect rx="6" ry="6" x="-28" y="-28" width="56" height="56" class="key layer"/>
<use href="#mdi:layers" xlink:href="#mdi:layers" x="-7" y="-7" height="14" width="14.0" class="key layer tap glyph mdi:layers"/>
<text x="0" y="26" class="key layer hold">NAV</text>
</g>
<g transform="translate(540, 240)" class="key modifier keypos-40">
<rect rx="6" ry="6" x="-28" y="-28" width="56" height="56" class="key modifier"/>
<use href="#mdi:apple-keyboard-shift" xlink:href="#mdi:apple-keyboard-shift" x="-7" y="-7" height="14" width="14.0" class="key modifier tap glyph mdi:apple-keyboard-shift"/>
</g>
<g transform="translate(600, 225)" class="key keypos-41">
<rect rx="6" ry="6" x="-28" y="-28" width="56" height="56" class="key"/>
</g>
</g>
</g>
<g transform="translate(30, 1023)" class="layer-DEL (one-shot)">
<text x="0" y="28" class="label" id="DEL-one-shot">DEL (one-shot)</text>
<g transform="translate(0, 56)">
<g transform="translate(30, 45)" class="key keypos-0">
<rect rx="6" ry="6" x="-28" y="-28" width="56" height="56" class="key"/>
</g>
<g transform="translate(90, 45)" class="key keypos-1">
<rect rx="6" ry="6" x="-28" y="-28" width="56" height="56" class="key"/>
</g>
<g transform="translate(150, 38)" class="key keypos-2">
<rect rx="6" ry="6" x="-28" y="-28" width="56" height="56" class="key"/>
</g>
<g transform="translate(210, 30)" class="key keypos-3">
<rect rx="6" ry="6" x="-28" y="-28" width="56" height="56" class="key"/>
</g>
<g transform="translate(270, 38)" class="key keypos-4">
<rect rx="6" ry="6" x="-28" y="-28" width="56" height="56" class="key"/>
</g>
<g transform="translate(330, 45)" class="key keypos-5">
<rect rx="6" ry="6" x="-28" y="-28" width="56" height="56" class="key"/>
</g>
<g transform="translate(510, 45)" class="key keypos-6">
<rect rx="6" ry="6" x="-28" y="-28" width="56" height="56" class="key"/>
</g>
<g transform="translate(570, 38)" class="key keypos-7">
<rect rx="6" ry="6" x="-28" y="-28" width="56" height="56" class="key"/>
</g>
<g transform="translate(630, 30)" class="key keypos-8">
<rect rx="6" ry="6" x="-28" y="-28" width="56" height="56" class="key"/>
</g>
<g transform="translate(690, 38)" class="key keypos-9">
<rect rx="6" ry="6" x="-28" y="-28" width="56" height="56" class="key"/>
</g>
<g transform="translate(750, 45)" class="key keypos-10">
<rect rx="6" ry="6" x="-28" y="-28" width="56" height="56" class="key"/>
</g>
<g transform="translate(810, 45)" class="key keypos-11">
<rect rx="6" ry="6" x="-28" y="-28" width="56" height="56" class="key"/>
</g>
<g transform="translate(30, 105)" class="key keypos-12">
<rect rx="6" ry="6" x="-28" y="-28" width="56" height="56" class="key"/>
</g>
<g transform="translate(90, 105)" class="key keypos-13">
<rect rx="6" ry="6" x="-28" y="-28" width="56" height="56" class="key"/>
</g>
<g transform="translate(150, 98)" class="key modifier keypos-14">
<rect rx="6" ry="6" x="-28" y="-28" width="56" height="56" class="key modifier"/>
<text x="0" y="0" class="key modifier tap">LAlt</text>
</g>
<g transform="translate(210, 90)" class="key modifier keypos-15">
<rect rx="6" ry="6" x="-28" y="-28" width="56" height="56" class="key modifier"/>
<use href="#mdi:apple-keyboard-control" xlink:href="#mdi:apple-keyboard-control" x="-7" y="-7" height="14" width="14.0" class="key modifier tap glyph mdi:apple-keyboard-control"/>
</g>
<g transform="translate(270, 98)" class="key modifier keypos-16">
<rect rx="6" ry="6" x="-28" y="-28" width="56" height="56" class="key modifier"/>
<use href="#mdi:apple-keyboard-shift" xlink:href="#mdi:apple-keyboard-shift" x="-7" y="-7" height="14" width="14.0" class="key modifier tap glyph mdi:apple-keyboard-shift"/>
</g>
<g transform="translate(330, 105)" class="key keypos-17">
<rect rx="6" ry="6" x="-28" y="-28" width="56" height="56" class="key"/>
</g>
<g transform="translate(510, 105)" class="key keypos-18">
<rect rx="6" ry="6" x="-28" y="-28" width="56" height="56" class="key"/>
</g>
<g transform="translate(570, 98)" class="key editing keypos-19">
<rect rx="6" ry="6" x="-28" y="-28" width="56" height="56" class="key editing"/>
<use href="#mdi:backspace-outline" xlink:href="#mdi:backspace-outline" x="-7" y="-7" height="14" width="14.0" class="key editing tap glyph mdi:backspace-outline"/>
</g>
<g transform="translate(630, 90)" class="key editing keypos-20">
<rect rx="6" ry="6" x="-28" y="-28" width="56" height="56" class="key editing"/>
<use href="#mdi:keyboard-return" xlink:href="#mdi:keyboard-return" x="-7" y="-7" height="14" width="14.0" class="key editing tap glyph mdi:keyboard-return"/>
</g>
<g transform="translate(690, 98)" class="key editing keypos-21">
<rect rx="6" ry="6" x="-28" y="-28" width="56" height="56" class="key editing"/>
<text x="0" y="0" class="key editing tap">Del</text>
</g>
<g transform="translate(750, 105)" class="key keypos-22">
<rect rx="6" ry="6" x="-28" y="-28" width="56" height="56" class="key"/>
</g>
<g transform="translate(810, 105)" class="key keypos-23">
<rect rx="6" ry="6" x="-28" y="-28" width="56" height="56" class="key"/>
</g>
<g transform="translate(30, 165)" class="key keypos-24">
<rect rx="6" ry="6" x="-28" y="-28" width="56" height="56" class="key"/>
</g>
<g transform="translate(90, 165)" class="key keypos-25">
<rect rx="6" ry="6" x="-28" y="-28" width="56" height="56" class="key"/>
</g>
<g transform="translate(150, 158)" class="key keypos-26">
<rect rx="6" ry="6" x="-28" y="-28" width="56" height="56" class="key"/>
</g>
<g transform="translate(210, 150)" class="key keypos-27">
<rect rx="6" ry="6" x="-28" y="-28" width="56" height="56" class="key"/>
</g>
<g transform="translate(270, 158)" class="key modifier keypos-28">
<rect rx="6" ry="6" x="-28" y="-28" width="56" height="56" class="key modifier"/>
<use href="#mdi:apple-keyboard-command" xlink:href="#mdi:apple-keyboard-command" x="-7" y="-7" height="14" width="14.0" class="key modifier tap glyph mdi:apple-keyboard-command"/>
</g>
<g transform="translate(330, 165)" class="key keypos-29">
<rect rx="6" ry="6" x="-28" y="-28" width="56" height="56" class="key"/>
</g>
<g transform="translate(510, 165)" class="key keypos-30">
<rect rx="6" ry="6" x="-28" y="-28" width="56" height="56" class="key"/>
</g>
<g transform="translate(570, 158)" class="key editing keypos-31">
<rect rx="6" ry="6" x="-28" y="-28" width="56" height="56" class="key editing"/>
<text x="0" y="0" class="key editing tap">C-Bsp</text>
</g>
<g transform="translate(630, 150)" class="key keypos-32">
<rect rx="6" ry="6" x="-28" y="-28" width="56" height="56" class="key"/>
</g>
<g transform="translate(690, 158)" class="key editing keypos-33">
<rect rx="6" ry="6" x="-28" y="-28" width="56" height="56" class="key editing"/>
<text x="0" y="0" class="key editing tap">C-Del</text>
</g>
<g transform="translate(750, 165)" class="key keypos-34">
<rect rx="6" ry="6" x="-28" y="-28" width="56" height="56" class="key"/>
</g>
<g transform="translate(810, 165)" class="key keypos-35">
<rect rx="6" ry="6" x="-28" y="-28" width="56" height="56" class="key"/>
</g>
<g transform="translate(240, 225)" class="key keypos-36">
<rect rx="6" ry="6" x="-28" y="-28" width="56" height="56" class="key"/>
</g>
<g transform="translate(300, 240)" class="key modifier keypos-37">
<rect rx="6" ry="6" x="-28" y="-28" width="56" height="56" class="key modifier"/>
<use href="#mdi:apple-keyboard-shift" xlink:href="#mdi:apple-keyboard-shift" x="-7" y="-7" height="14" width="14.0" class="key modifier tap glyph mdi:apple-keyboard-shift"/>
</g>
<g transform="translate(360, 255)" class="key keypos-38">
<rect rx="6" ry="6" x="-28" y="-28" width="56" height="56" class="key"/>
</g>
<g transform="translate(480, 255)" class="key layer keypos-39">
<rect rx="6" ry="6" x="-28" y="-28" width="56" height="56" class="key layer"/>
<use href="#mdi:lock" xlink:href="#mdi:lock" x="-7" y="-7" height="14" width="14.0" class="key layer tap glyph mdi:lock"/>
</g>
<g transform="translate(540, 240)" class="key modifier keypos-40">
<rect rx="6" ry="6" x="-28" y="-28" width="56" height="56" class="key modifier"/>
<use href="#mdi:apple-keyboard-shift" xlink:href="#mdi:apple-keyboard-shift" x="-7" y="-7" height="14" width="14.0" class="key modifier tap glyph mdi:apple-keyboard-shift"/>
</g>
<g transform="translate(600, 225)" class="key keypos-41">
<rect rx="6" ry="6" x="-28" y="-28" width="56" height="56" class="key"/>
</g>
</g>
</g>
</svg>
