<svg width="900" height="397" viewBox="0 0 900 397" class="keymap" xmlns="http://www.w3.org/2000/svg" xmlns:xlink="http://www.w3.org/1999/xlink"><defs><filter id="sh" x="-50%" y="-50%" width="200%" height="200%" color-interpolation-filters="sRGB"><feGaussianBlur stdDeviation="1.6"/></filter></defs><rect x="0" y="0" width="100%" height="100%" fill="#faf8f4"/>
<defs>/* start glyphs */
<svg id="mdi:apple-keyboard-shift">
<svg xmlns="http://www.w3.org/2000/svg" id="mdi-apple-keyboard-shift" viewBox="0 0 24 24"><path d="M15,18V12H17.17L12,6.83L6.83,12H9V18H15M12,4L22,14H17V20H7V14H2L12,4Z" /><defs><pattern id="stripes" patternUnits="userSpaceOnUse" width="8" height="8" patternTransform="rotate(45)"><rect width="8" height="8" fill="#efefef"/><rect width="4" height="8" fill="#c8c8c8"/></pattern></defs></svg>
<defs><pattern id="stripes" patternUnits="userSpaceOnUse" width="8" height="8" patternTransform="rotate(45)"><rect width="8" height="8" fill="#efefef"/><rect width="4" height="8" fill="#c8c8c8"/></pattern></defs></svg>
<svg id="mdi:backspace-outline">
<svg xmlns="http://www.w3.org/2000/svg" id="mdi-backspace-outline" viewBox="0 0 24 24"><path d="M19,15.59L17.59,17L14,13.41L10.41,17L9,15.59L12.59,12L9,8.41L10.41,7L14,10.59L17.59,7L19,8.41L15.41,12L19,15.59M22,3A2,2 0 0,1 24,5V19A2,2 0 0,1 22,21H7C6.31,21 5.77,20.64 5.41,20.11L0,12L5.41,3.88C5.77,3.35 6.31,3 7,3H22M22,5H7L2.28,12L7,19H22V5Z" /><defs><pattern id="stripes" patternUnits="userSpaceOnUse" width="8" height="8" patternTransform="rotate(45)"><rect width="8" height="8" fill="#efefef"/><rect width="4" height="8" fill="#c8c8c8"/></pattern></defs></svg>
<defs><pattern id="stripes" patternUnits="userSpaceOnUse" width="8" height="8" patternTransform="rotate(45)"><rect width="8" height="8" fill="#efefef"/><rect width="4" height="8" fill="#c8c8c8"/></pattern></defs></svg>
<svg id="mdi:keyboard-return">
<svg xmlns="http://www.w3.org/2000/svg" id="mdi-keyboard-return" viewBox="0 0 24 24"><path d="M19,7V11H5.83L9.41,7.41L8,6L2,12L8,18L9.41,16.58L5.83,13H21V7H19Z" /><defs><pattern id="stripes" patternUnits="userSpaceOnUse" width="8" height="8" patternTransform="rotate(45)"><rect width="8" height="8" fill="#efefef"/><rect width="4" height="8" fill="#c8c8c8"/></pattern></defs></svg>
<defs><pattern id="stripes" patternUnits="userSpaceOnUse" width="8" height="8" patternTransform="rotate(45)"><rect width="8" height="8" fill="#efefef"/><rect width="4" height="8" fill="#c8c8c8"/></pattern></defs></svg>
<svg id="mdi:keyboard-space">
<svg xmlns="http://www.w3.org/2000/svg" id="mdi-keyboard-space" viewBox="0 0 24 24"><path d="M3 15H5V19H19V15H21V19C21 20.1 20.1 21 19 21H5C3.9 21 3 20.1 3 19V15Z" /><defs><pattern id="stripes" patternUnits="userSpaceOnUse" width="8" height="8" patternTransform="rotate(45)"><rect width="8" height="8" fill="#efefef"/><rect width="4" height="8" fill="#c8c8c8"/></pattern></defs></svg>
<defs><pattern id="stripes" patternUnits="userSpaceOnUse" width="8" height="8" patternTransform="rotate(45)"><rect width="8" height="8" fill="#efefef"/><rect width="4" height="8" fill="#c8c8c8"/></pattern></defs></svg>
<svg id="mdi:keyboard-tab">
<svg xmlns="http://www.w3.org/2000/svg" id="mdi-keyboard-tab" viewBox="0 0 24 24"><path d="M20,18H22V6H20M11.59,7.41L15.17,11H1V13H15.17L11.59,16.58L13,18L19,12L13,6L11.59,7.41Z" /><defs><pattern id="stripes" patternUnits="userSpaceOnUse" width="8" height="8" patternTransform="rotate(45)"><rect width="8" height="8" fill="#efefef"/><rect width="4" height="8" fill="#c8c8c8"/></pattern></defs></svg>
<defs><pattern id="stripes" patternUnits="userSpaceOnUse" width="8" height="8" patternTransform="rotate(45)"><rect width="8" height="8" fill="#efefef"/><rect width="4" height="8" fill="#c8c8c8"/></pattern></defs></svg>
<svg id="mdi:layers-outline">
<svg xmlns="http://www.w3.org/2000/svg" id="mdi-layers-outline" viewBox="0 0 24 24"><path d="M12,18.54L19.37,12.8L21,14.07L12,21.07L3,14.07L4.62,12.81L12,18.54M12,16L3,9L12,2L21,9L12,16M12,4.53L6.26,9L12,13.47L17.74,9L12,4.53Z" /><defs><pattern id="stripes" patternUnits="userSpaceOnUse" width="8" height="8" patternTransform="rotate(45)"><rect width="8" height="8" fill="#efefef"/><rect width="4" height="8" fill="#c8c8c8"/></pattern></defs></svg>
<defs><pattern id="stripes" patternUnits="userSpaceOnUse" width="8" height="8" patternTransform="rotate(45)"><rect width="8" height="8" fill="#efefef"/><rect width="4" height="8" fill="#c8c8c8"/></pattern></defs></svg>
</defs>/* end glyphs */
<style>/* inherit to force styles through use tags */
svg path {
    fill: inherit;
}

/* font and background color specifications */
svg.keymap {
    font-family: 'Source Sans 3','Source Sans Pro',sans-serif;
    font-size: 14px;
    font-kerning: normal;
    text-rendering: optimizeLegibility;
    fill: #24292e;
}

/* default key styling */
rect.key {
    fill: #f6f8fa;
}

rect.key, rect.combo {
    stroke: #c9cccf;
    stroke-width: 1;
}

/* default key side styling, only used is draw_key_sides is set */
rect.side {
    filter: brightness(90%);
}

/* color accent for combo boxes */
rect.combo, rect.combo-separate {
    fill: #cdf;
}

/* color accent for held keys */
rect.held, rect.combo.held {
    fill: #fdd;
}

/* color accent for ghost (optional) keys */
rect.ghost, rect.combo.ghost {
    stroke-dasharray: 4, 4;
    stroke-width: 2;
}

text {
    text-anchor: middle;
    dominant-baseline: middle;
}

/* styling for layer labels */
text.label {
    font-weight: 600;
    font-size: 20px;
    letter-spacing: 0.08em;
    fill: #5a5048;
    text-anchor: start;
    stroke: white;
    stroke-width: 4;
    paint-order: stroke;
}

/* styling for optional footer */
text.footer {
    text-anchor: end;
    dominant-baseline: auto;
    stroke: white;
    stroke-width: 4;
    paint-order: stroke;
}

/* styling for combo tap, and key non-tap label text */
text.combo, text.hold, text.shifted, text.left, text.right, text.tl, text.tr, text.bl, text.br {
    font-size: 11px;
}

text.hold, text.bl, text.br {
    text-anchor: middle;
    dominant-baseline: auto;
}

text.shifted, text.tl, text.tr {
    text-anchor: middle;
    dominant-baseline: hanging;
}

text.left, text.tl, text.bl {
    text-anchor: start;
}

text.right, text.tr, text.br {
    text-anchor: end;
}

text.layer-activator {
    text-decoration: underline;
}

/* styling for hold/shifted label text in combo box */
text.combo.hold, text.combo.shifted, text.combo.left, text.combo.right {
    font-size: 8px;
}

/* lighter symbol for transparent keys */
text.trans {
    fill: #7b7e81;
}

/* styling for combo dendrons */
path.combo {
    stroke-width: 1;
    stroke: gray;
    fill: none;
}

/* Start Tabler Icons Cleanup */
/* cannot use height/width with glyphs */
.icon-tabler > path {
    fill: inherit;
    stroke: inherit;
    stroke-width: 2;
}
/* hide tabler's default box */
.icon-tabler > path[stroke="none"][fill="none"] {
    visibility: hidden;
}
/* End Tabler Icons Cleanup */

/* Two-tier palette: pale fills = content regions (ambient), vivid = behavior */
/* Tier 1 - ambient content categories (default dark text) */
/* Palette: grey = alphas/trans (default), white = unused, green = symbols,
   purple = layers, blue = navigation (incl. latches), orange = everything else */
svg.keymap { fill: #36322e; }
.key.none rect.key { fill: white; opacity: 50%; }
.key.symbol rect.key { fill: #e9f5f0; stroke: #bedfd2; }
.key.layer rect.key { fill: #ead9eb; stroke: #9a5fa1; }
.key.layer.tap, .key.layer.hold, .key.layer.shifted { fill: #9a5fa1; }
.key.nav rect.key { fill: #dbe9f8; stroke: #6b97c9; }
.key.delhold.tap, .key.delhold.hold, .key.delhold.shifted { fill: #c25f54; }
.key.editing rect.key, .key.state rect.key, .key.danger rect.key, .key.modifier rect.key { fill: #fdebd9; stroke: #dd9d57; }
.key.system rect.key { fill: #f9f0c9; stroke: #cdb94e; }
.key.modifier.tap, .key.modifier.hold, .key.modifier.shifted { fill: #b06c1f; }
.key.modtap.hold { fill: #4a7ab8; font-weight: bold; }
.key.held rect.key { fill: url(#stripes); stroke: #999999; }
.combo.state rect.key { fill: #fdebd9; stroke: #dd9d57; }
.combo.symbol rect.key { fill: #e9f5f0; stroke: #bedfd2; }
.key.shifted { transform: translateY(2px); }
.key.hold {transform: translateY(-2px); }
</style>
<g transform="translate(30, 0)" class="layer-0 · Base (QWERTY)">
<text x="0" y="28" class="label" id="Base-QWERTY">0 · Base (QWERTY)</text>
<g transform="translate(0, 56)">
<g transform="translate(30, 45)" class="key none keypos-0">
<rect rx="5" ry="5" x="-28" y="-28" width="56" height="56" class="key none"/>
</g>
<g transform="translate(90, 45)" class="key keypos-1">
<rect x="-25.2" y="-25.5" width="54" height="54" rx="3" ry="3" fill="#3a2f25" opacity="0.16" filter="url(#sh)"/><rect rx="5" ry="5" x="-28" y="-28" width="56" height="56" class="key"/>
<text style="font-family:SFMono-Regular,Consolas,Liberation Mono,Menlo,monospace" x="0" y="0" class="key tap">Q</text>
</g>
<g transform="translate(150, 38)" class="key keypos-2">
<rect x="-25.2" y="-25.5" width="54" height="54" rx="3" ry="3" fill="#3a2f25" opacity="0.16" filter="url(#sh)"/><rect rx="5" ry="5" x="-28" y="-28" width="56" height="56" class="key"/>
<text style="font-family:SFMono-Regular,Consolas,Liberation Mono,Menlo,monospace" x="0" y="0" class="key tap">W</text>
</g>
<g transform="translate(210, 30)" class="key keypos-3">
<rect x="-25.2" y="-25.5" width="54" height="54" rx="3" ry="3" fill="#3a2f25" opacity="0.16" filter="url(#sh)"/><rect rx="5" ry="5" x="-28" y="-28" width="56" height="56" class="key"/>
<text style="font-family:SFMono-Regular,Consolas,Liberation Mono,Menlo,monospace" x="0" y="0" class="key tap">E</text>
</g>
<g transform="translate(270, 38)" class="key keypos-4">
<rect x="-25.2" y="-25.5" width="54" height="54" rx="3" ry="3" fill="#3a2f25" opacity="0.16" filter="url(#sh)"/><rect rx="5" ry="5" x="-28" y="-28" width="56" height="56" class="key"/>
<text style="font-family:SFMono-Regular,Consolas,Liberation Mono,Menlo,monospace" x="0" y="0" class="key tap">R</text>
</g>
<g transform="translate(330, 45)" class="key keypos-5">
<rect x="-25.2" y="-25.5" width="54" height="54" rx="3" ry="3" fill="#3a2f25" opacity="0.16" filter="url(#sh)"/><rect rx="5" ry="5" x="-28" y="-28" width="56" height="56" class="key"/>
<text style="font-family:SFMono-Regular,Consolas,Liberation Mono,Menlo,monospace" x="0" y="0" class="key tap">T</text>
</g>
<g transform="translate(510, 45)" class="key keypos-6">
<rect x="-25.2" y="-25.5" width="54" height="54" rx="3" ry="3" fill="#3a2f25" opacity="0.16" filter="url(#sh)"/><rect rx="5" ry="5" x="-28" y="-28" width="56" height="56" class="key"/>
<text style="font-family:SFMono-Regular,Consolas,Liberation Mono,Menlo,monospace" x="0" y="0" class="key tap">Y</text>
</g>
<g transform="translate(570, 38)" class="key keypos-7">
<rect x="-25.2" y="-25.5" width="54" height="54" rx="3" ry="3" fill="#3a2f25" opacity="0.16" filter="url(#sh)"/><rect rx="5" ry="5" x="-28" y="-28" width="56" height="56" class="key"/>
<text style="font-family:SFMono-Regular,Consolas,Liberation Mono,Menlo,monospace" x="0" y="0" class="key tap">U</text>
</g>
<g transform="translate(630, 30)" class="key keypos-8">
<rect x="-25.2" y="-25.5" width="54" height="54" rx="3" ry="3" fill="#3a2f25" opacity="0.16" filter="url(#sh)"/><rect rx="5" ry="5" x="-28" y="-28" width="56" height="56" class="key"/>
<text style="font-family:SFMono-Regular,Consolas,Liberation Mono,Menlo,monospace" x="0" y="0" class="key tap">I</text>
</g>
<g transform="translate(690, 38)" class="key keypos-9">
<rect x="-25.2" y="-25.5" width="54" height="54" rx="3" ry="3" fill="#3a2f25" opacity="0.16" filter="url(#sh)"/><rect rx="5" ry="5" x="-28" y="-28" width="56" height="56" class="key"/>
<text style="font-family:SFMono-Regular,Consolas,Liberation Mono,Menlo,monospace" x="0" y="0" class="key tap">O</text>
</g>
<g transform="translate(750, 45)" class="key keypos-10">
<rect x="-25.2" y="-25.5" width="54" height="54" rx="3" ry="3" fill="#3a2f25" opacity="0.16" filter="url(#sh)"/><rect rx="5" ry="5" x="-28" y="-28" width="56" height="56" class="key"/>
<text style="font-family:SFMono-Regular,Consolas,Liberation Mono,Menlo,monospace" x="0" y="0" class="key tap">P</text>
</g>
<g transform="translate(810, 45)" class="key none keypos-11">
<rect rx="5" ry="5" x="-28" y="-28" width="56" height="56" class="key none"/>
</g>
<g transform="translate(30, 105)" class="key editing keypos-12">
<rect x="-25.2" y="-25.5" width="54" height="54" rx="3" ry="3" fill="#3a2f25" opacity="0.16" filter="url(#sh)"/><rect rx="5" ry="5" x="-28" y="-28" width="56" height="56" class="key editing"/>
<use href="#mdi:keyboard-tab" xlink:href="#mdi:keyboard-tab" x="-7" y="-7" height="14" width="14.0" class="key editing tap glyph mdi:keyboard-tab"/>
</g>
<g transform="translate(90, 105)" class="key keypos-13">
<rect x="-25.2" y="-25.5" width="54" height="54" rx="3" ry="3" fill="#3a2f25" opacity="0.16" filter="url(#sh)"/><rect rx="5" ry="5" x="-28" y="-28" width="56" height="56" class="key"/>
<text style="font-family:SFMono-Regular,Consolas,Liberation Mono,Menlo,monospace" x="0" y="0" class="key tap">A</text>
</g>
<g transform="translate(150, 98)" class="key keypos-14">
<rect x="-25.2" y="-25.5" width="54" height="54" rx="3" ry="3" fill="#3a2f25" opacity="0.16" filter="url(#sh)"/><rect rx="5" ry="5" x="-28" y="-28" width="56" height="56" class="key"/>
<text style="font-family:SFMono-Regular,Consolas,Liberation Mono,Menlo,monospace" x="0" y="0" class="key tap">S</text>
</g>
<g transform="translate(210, 90)" class="key keypos-15">
<rect x="-25.2" y="-25.5" width="54" height="54" rx="3" ry="3" fill="#3a2f25" opacity="0.16" filter="url(#sh)"/><rect rx="5" ry="5" x="-28" y="-28" width="56" height="56" class="key"/>
<text style="font-family:SFMono-Regular,Consolas,Liberation Mono,Menlo,monospace" x="0" y="0" class="key tap">D</text>
</g>
<g transform="translate(270, 98)" class="key keypos-16">
<rect x="-25.2" y="-25.5" width="54" height="54" rx="3" ry="3" fill="#3a2f25" opacity="0.16" filter="url(#sh)"/><rect rx="5" ry="5" x="-28" y="-28" width="56" height="56" class="key"/>
<text style="font-family:SFMono-Regular,Consolas,Liberation Mono,Menlo,monospace" x="0" y="0" class="key tap">F</text>
</g>
<g transform="translate(330, 105)" class="key modtap keypos-17">
<rect x="-25.2" y="-25.5" width="54" height="54" rx="3" ry="3" fill="#3a2f25" opacity="0.16" filter="url(#sh)"/><rect rx="5" ry="5" x="-28" y="-28" width="56" height="56" class="key modtap"/>
<text style="font-family:SFMono-Regular,Consolas,Liberation Mono,Menlo,monospace" x="0" y="0" class="key modtap tap">G</text>
<text x="0" y="26" class="key modtap hold">⌘/Ctrl</text>
</g>
<g transform="translate(510, 105)" class="key modtap keypos-18">
<rect x="-25.2" y="-25.5" width="54" height="54" rx="3" ry="3" fill="#3a2f25" opacity="0.16" filter="url(#sh)"/><rect rx="5" ry="5" x="-28" y="-28" width="56" height="56" class="key modtap"/>
<text style="font-family:SFMono-Regular,Consolas,Liberation Mono,Menlo,monospace" x="0" y="0" class="key modtap tap">H</text>
<text x="0" y="26" class="key modtap hold">⌘/Ctrl</text>
</g>
<g transform="translate(570, 98)" class="key keypos-19">
<rect x="-25.2" y="-25.5" width="54" height="54" rx="3" ry="3" fill="#3a2f25" opacity="0.16" filter="url(#sh)"/><rect rx="5" ry="5" x="-28" y="-28" width="56" height="56" class="key"/>
<text style="font-family:SFMono-Regular,Consolas,Liberation Mono,Menlo,monospace" x="0" y="0" class="key tap">J</text>
</g>
<g transform="translate(630, 90)" class="key keypos-20">
<rect x="-25.2" y="-25.5" width="54" height="54" rx="3" ry="3" fill="#3a2f25" opacity="0.16" filter="url(#sh)"/><rect rx="5" ry="5" x="-28" y="-28" width="56" height="56" class="key"/>
<text style="font-family:SFMono-Regular,Consolas,Liberation Mono,Menlo,monospace" x="0" y="0" class="key tap">K</text>
</g>
<g transform="translate(690, 98)" class="key keypos-21">
<rect x="-25.2" y="-25.5" width="54" height="54" rx="3" ry="3" fill="#3a2f25" opacity="0.16" filter="url(#sh)"/><rect rx="5" ry="5" x="-28" y="-28" width="56" height="56" class="key"/>
<text style="font-family:SFMono-Regular,Consolas,Liberation Mono,Menlo,monospace" x="0" y="0" class="key tap">L</text>
</g>
<g transform="translate(750, 105)" class="key symbol keypos-22">
<rect x="-25.2" y="-25.5" width="54" height="54" rx="3" ry="3" fill="#3a2f25" opacity="0.16" filter="url(#sh)"/><rect rx="5" ry="5" x="-28" y="-28" width="56" height="56" class="key symbol"/>
<text style="font-family:SFMono-Regular,Consolas,Liberation Mono,Menlo,monospace" x="0" y="0" class="key symbol tap">&#x27;</text>
<text style="font-family:SFMono-Regular,Consolas,Liberation Mono,Menlo,monospace" x="0" y="-26" class="key symbol shifted">&quot;</text>
</g>
<g transform="translate(810, 105)" class="key editing keypos-23">
<rect x="-25.2" y="-25.5" width="54" height="54" rx="3" ry="3" fill="#3a2f25" opacity="0.16" filter="url(#sh)"/><rect rx="5" ry="5" x="-28" y="-28" width="56" height="56" class="key editing"/>
<use href="#mdi:backspace-outline" xlink:href="#mdi:backspace-outline" x="-7" y="-7" height="14" width="14.0" class="key editing tap glyph mdi:backspace-outline"/>
</g>
<g transform="translate(30, 165)" class="key none keypos-24">
<rect rx="5" ry="5" x="-28" y="-28" width="56" height="56" class="key none"/>
</g>
<g transform="translate(90, 165)" class="key keypos-25">
<rect x="-25.2" y="-25.5" width="54" height="54" rx="3" ry="3" fill="#3a2f25" opacity="0.16" filter="url(#sh)"/><rect rx="5" ry="5" x="-28" y="-28" width="56" height="56" class="key"/>
<text style="font-family:SFMono-Regular,Consolas,Liberation Mono,Menlo,monospace" x="0" y="0" class="key tap">Z</text>
</g>
<g transform="translate(150, 158)" class="key modtap keypos-26">
<rect x="-25.2" y="-25.5" width="54" height="54" rx="3" ry="3" fill="#3a2f25" opacity="0.16" filter="url(#sh)"/><rect rx="5" ry="5" x="-28" y="-28" width="56" height="56" class="key modtap"/>
<text style="font-family:SFMono-Regular,Consolas,Liberation Mono,Menlo,monospace" x="0" y="0" class="key modtap tap">X</text>
<text x="0" y="26" class="key modtap hold">LAlt</text>
</g>
<g transform="translate(210, 150)" class="key modtap keypos-27">
<rect x="-25.2" y="-25.5" width="54" height="54" rx="3" ry="3" fill="#3a2f25" opacity="0.16" filter="url(#sh)"/><rect rx="5" ry="5" x="-28" y="-28" width="56" height="56" class="key modtap"/>
<text style="font-family:SFMono-Regular,Consolas,Liberation Mono,Menlo,monospace" x="0" y="0" class="key modtap tap">C</text>
<text x="0" y="26" class="key modtap hold">LGui</text>
</g>
<g transform="translate(270, 158)" class="key modtap keypos-28">
<rect x="-25.2" y="-25.5" width="54" height="54" rx="3" ry="3" fill="#3a2f25" opacity="0.16" filter="url(#sh)"/><rect rx="5" ry="5" x="-28" y="-28" width="56" height="56" class="key modtap"/>
<text style="font-family:SFMono-Regular,Consolas,Liberation Mono,Menlo,monospace" x="0" y="0" class="key modtap tap">V</text>
<text x="0" y="26" class="key modtap hold">LCtrl</text>
</g>
<g transform="translate(330, 165)" class="key keypos-29">
<rect x="-25.2" y="-25.5" width="54" height="54" rx="3" ry="3" fill="#3a2f25" opacity="0.16" filter="url(#sh)"/><rect rx="5" ry="5" x="-28" y="-28" width="56" height="56" class="key"/>
<text style="font-family:SFMono-Regular,Consolas,Liberation Mono,Menlo,monospace" x="0" y="0" class="key tap">B</text>
</g>
<g transform="translate(510, 165)" class="key keypos-30">
<rect x="-25.2" y="-25.5" width="54" height="54" rx="3" ry="3" fill="#3a2f25" opacity="0.16" filter="url(#sh)"/><rect rx="5" ry="5" x="-28" y="-28" width="56" height="56" class="key"/>
<text style="font-family:SFMono-Regular,Consolas,Liberation Mono,Menlo,monospace" x="0" y="0" class="key tap">N</text>
</g>
<g transform="translate(570, 158)" class="key modtap keypos-31">
<rect x="-25.2" y="-25.5" width="54" height="54" rx="3" ry="3" fill="#3a2f25" opacity="0.16" filter="url(#sh)"/><rect rx="5" ry="5" x="-28" y="-28" width="56" height="56" class="key modtap"/>
<text style="font-family:SFMono-Regular,Consolas,Liberation Mono,Menlo,monospace" x="0" y="0" class="key modtap tap">M</text>
<text x="0" y="26" class="key modtap hold">RCtrl</text>
</g>
<g transform="translate(630, 150)" class="key symbol modtap keypos-32">
<rect x="-25.2" y="-25.5" width="54" height="54" rx="3" ry="3" fill="#3a2f25" opacity="0.16" filter="url(#sh)"/><rect rx="5" ry="5" x="-28" y="-28" width="56" height="56" class="key symbol modtap"/>
<text style="font-family:SFMono-Regular,Consolas,Liberation Mono,Menlo,monospace" x="0" y="0" class="key symbol modtap tap">,</text>
<text x="0" y="26" class="key symbol modtap hold">RGui</text>
<text style="font-family:SFMono-Regular,Consolas,Liberation Mono,Menlo,monospace" x="0" y="-26" class="key symbol modtap shifted">?</text>
</g>
<g transform="translate(690, 158)" class="key symbol modtap keypos-33">
<rect x="-25.2" y="-25.5" width="54" height="54" rx="3" ry="3" fill="#3a2f25" opacity="0.16" filter="url(#sh)"/><rect rx="5" ry="5" x="-28" y="-28" width="56" height="56" class="key symbol modtap"/>
<text style="font-family:SFMono-Regular,Consolas,Liberation Mono,Menlo,monospace" x="0" y="0" class="key symbol modtap tap">.</text>
<text x="0" y="26" class="key symbol modtap hold">RAlt</text>
<text style="font-family:SFMono-Regular,Consolas,Liberation Mono,Menlo,monospace" x="0" y="-26" class="key symbol modtap shifted">!</text>
</g>
<g transform="translate(750, 165)" class="key symbol keypos-34">
<rect x="-25.2" y="-25.5" width="54" height="54" rx="3" ry="3" fill="#3a2f25" opacity="0.16" filter="url(#sh)"/><rect rx="5" ry="5" x="-28" y="-28" width="56" height="56" class="key symbol"/>
<text style="font-family:SFMono-Regular,Consolas,Liberation Mono,Menlo,monospace" x="0" y="0" class="key symbol tap">/</text>
<text style="font-family:SFMono-Regular,Consolas,Liberation Mono,Menlo,monospace" x="0" y="-26" class="key symbol shifted">|</text>
</g>
<g transform="translate(810, 165)" class="key symbol keypos-35">
<rect x="-25.2" y="-25.5" width="54" height="54" rx="3" ry="3" fill="#3a2f25" opacity="0.16" filter="url(#sh)"/><rect rx="5" ry="5" x="-28" y="-28" width="56" height="56" class="key symbol"/>
<text style="font-family:SFMono-Regular,Consolas,Liberation Mono,Menlo,monospace" x="0" y="0" class="key symbol tap">-</text>
<text style="font-family:SFMono-Regular,Consolas,Liberation Mono,Menlo,monospace" x="0" y="-26" class="key symbol shifted">_</text>
</g>
<g transform="translate(240, 225)" class="key none keypos-36">
<rect rx="5" ry="5" x="-28" y="-28" width="56" height="56" class="key none"/>
</g>
<g transform="translate(300, 240)" class="key modifier keypos-37">
<rect x="-25.2" y="-25.5" width="54" height="54" rx="3" ry="3" fill="#3a2f25" opacity="0.16" filter="url(#sh)"/><rect rx="5" ry="5" x="-28" y="-28" width="56" height="56" class="key modifier"/>
<use href="#mdi:apple-keyboard-shift" xlink:href="#mdi:apple-keyboard-shift" x="-7" y="-7" height="14" width="14.0" class="key modifier tap glyph mdi:apple-keyboard-shift"/>
<text x="0" y="26" class="key modifier hold"><tspan style="font-size: 78%">2x: CWord</tspan></text>
</g>
<g transform="translate(360, 255)" class="key layer keypos-38">
<rect x="-25.2" y="-25.5" width="54" height="54" rx="3" ry="3" fill="#3a2f25" opacity="0.16" filter="url(#sh)"/><rect rx="5" ry="5" x="-28" y="-28" width="56" height="56" class="key layer"/>
<use href="#mdi:layers-outline" xlink:href="#mdi:layers-outline" x="-7" y="-7" height="14" width="14.0" class="key layer tap glyph mdi:layers-outline"/>
<text style="font-family:SFMono-Regular,Consolas,Liberation Mono,Menlo,monospace" x="0" y="26" class="key layer hold">2</text>
</g>
<g transform="translate(480, 255)" class="key layer keypos-39">
<rect x="-25.2" y="-25.5" width="54" height="54" rx="3" ry="3" fill="#3a2f25" opacity="0.16" filter="url(#sh)"/><rect rx="5" ry="5" x="-28" y="-28" width="56" height="56" class="key layer"/>
<use href="#mdi:keyboard-return" xlink:href="#mdi:keyboard-return" x="-7" y="-7" height="14" width="14.0" class="key layer tap glyph mdi:keyboard-return"/>
<text style="font-family:SFMono-Regular,Consolas,Liberation Mono,Menlo,monospace" x="0" y="26" class="key layer hold">1</text>
</g>
<g transform="translate(540, 240)" class="key editing keypos-40">
<rect x="-25.2" y="-25.5" width="54" height="54" rx="3" ry="3" fill="#3a2f25" opacity="0.16" filter="url(#sh)"/><rect rx="5" ry="5" x="-28" y="-28" width="56" height="56" class="key editing"/>
<use href="#mdi:keyboard-space" xlink:href="#mdi:keyboard-space" x="-7" y="-7" height="14" width="14.0" class="key editing tap glyph mdi:keyboard-space"/>
</g>
<g transform="translate(600, 225)" class="key none keypos-41">
<rect rx="5" ry="5" x="-28" y="-28" width="56" height="56" class="key none"/>
</g>
<g class="combo state combopos-0">
<path d="M420,271 h-114 a6.0,6.0 0 0 1 -6.0,-6.0 v-5" class="combo"/>
<path d="M420,271 h114 a6.0,6.0 0 0 0 6.0,-6.0 v-5" class="combo"/>
<rect rx="5" ry="5" x="406" y="260" width="28" height="22" class="combo state"/>
<text x="420" y="271" class="combo state tap">Compose</text>
</g>
</g>
</g>
<defs><pattern id="stripes" patternUnits="userSpaceOnUse" width="8" height="8" patternTransform="rotate(45)"><rect width="8" height="8" fill="#efefef"/><rect width="4" height="8" fill="#c8c8c8"/></pattern></defs></svg>
